<?xml version="1.0" encoding="UTF-8" standalone="no"?>
<svg
   xmlns:dc="http://purl.org/dc/elements/1.1/"
   xmlns:cc="http://creativecommons.org/ns#"
   xmlns:rdf="http://www.w3.org/1999/02/22-rdf-syntax-ns#"
   xmlns:svg="http://www.w3.org/2000/svg"
   xmlns="http://www.w3.org/2000/svg"
   xmlns:sodipodi="http://sodipodi.sourceforge.net/DTD/sodipodi-0.dtd"
   xmlns:inkscape="http://www.inkscape.org/namespaces/inkscape"
   viewBox="0 0 666.66669 666.66669"
   height="666.66669"
   width="666.66669"
   xml:space="preserve"
   id="svg2"
   version="1.1"
   sodipodi:docname="landing.svg"
   inkscape:version="0.92.5 (2060ec1f9f, 2020-04-08)"><sodipodi:namedview
     pagecolor="#ffffff"
     bordercolor="#666666"
     borderopacity="1"
     objecttolerance="10"
     gridtolerance="10"
     guidetolerance="10"
     inkscape:pageopacity="0"
     inkscape:pageshadow="2"
     inkscape:window-width="1366"
     inkscape:window-height="668"
     id="namedview171"
     showgrid="false"
     inkscape:zoom="0.50063159"
     inkscape:cx="-106.84742"
     inkscape:cy="393.59588"
     inkscape:window-x="0"
     inkscape:window-y="27"
     inkscape:window-maximized="1"
     inkscape:current-layer="svg2" /><metadata
     id="metadata8"><rdf:RDF><cc:Work
         rdf:about=""><dc:format>image/svg+xml</dc:format><dc:type
           rdf:resource="http://purl.org/dc/dcmitype/StillImage" /><dc:title /></cc:Work></rdf:RDF></metadata><defs
     id="defs6"><clipPath
       id="clipPath92"
       clipPathUnits="userSpaceOnUse"><path
         id="path90"
         d="m 2855.82,1855.01 -0.09,-0.76 -0.15,-0.63 -0.21,-0.72 -0.25,-0.6 -0.35,-0.75 -0.33,-0.53 -0.57,-0.86 -0.39,-0.49 -1.04,-1.11 -0.4,-0.4 -0.75,-0.61 -0.68,-0.54 -0.87,-0.58 -0.93,-0.6 -280.12,-162.65 c -1.06,-0.61 -2.22,-1.13 -3.4,-1.61 l -0.95,-0.36 -2.29,-0.69 -2.43,-0.62 c -0.97,-0.19 -1.95,-0.38 -2.95,-0.5 l -0.72,-0.1 c -1.36,-0.15 -2.73,-0.22 -4.09,-0.23 h -0.65 c -1.36,0.01 -2.7,0.08 -4.04,0.23 l -0.6,0.07 c -1.33,0.15 -2.63,0.38 -3.9,0.66 l -0.71,0.18 c -1.16,0.28 -2.28,0.63 -3.38,1.02 l -0.58,0.21 c -1.31,0.49 -2.56,1.08 -3.72,1.74 l -195.52,112.89 c -3.6,2.07 -5.85,4.64 -6.74,7.33 -0.3,0.89 -0.45,1.8 -0.45,2.7 l -0.07,-11.22 0.12,-1.35 c 0.51,-3.17 2.87,-6.25 7.07,-8.68 l 195.52,-112.89 c 1.1,-0.63 2.28,-1.19 3.52,-1.68 l 0.2,-0.07 0.59,-0.2 2.17,-0.73 1.2,-0.3 0.71,-0.17 0.63,-0.16 2.4,-0.42 0.87,-0.09 0.6,-0.06 0.9,-0.1 2.39,-0.14 0.75,0.01 h 0.65 l 1.08,0.01 c 0.91,0.03 1.81,0.09 2.7,0.18 l 0.31,0.04 0.72,0.1 2.06,0.29 0.89,0.22 2.44,0.61 1.28,0.31 1,0.38 0.95,0.36 c 1.2,0.48 2.34,1 3.4,1.61 l 280.12,162.65 0.3,0.18 0.63,0.42 0.87,0.58 0.68,0.54 0.75,0.61 0.15,0.13 0.25,0.27 1.04,1.11 0.22,0.24 0.17,0.25 0.58,0.85 0.23,0.36 0.09,0.18 0.35,0.75 0.21,0.45 0.04,0.15 0.21,0.72 0.14,0.5 0.01,0.13 0.09,0.77 0.06,0.5 0.01,0.21 0.06,11.21 z" /></clipPath><linearGradient
       id="linearGradient98"
       spreadMethod="pad"
       gradientTransform="matrix(65.6709,-505.383,505.383,65.6709,2512.8,2447.54)"
       gradientUnits="userSpaceOnUse"
       y2="0"
       x2="1"
       y1="0"
       x1="0"><stop
         id="stop94"
         offset="0"
         style="stop-opacity:1;stop-color:#cdeafa" /><stop
         id="stop96"
         offset="1"
         style="stop-opacity:1;stop-color:#9195d3" /></linearGradient><clipPath
       id="clipPath108"
       clipPathUnits="userSpaceOnUse"><path
         id="path106"
         d="m 2819.81,1862.21 c 3.06,-1.76 3.08,-4.63 0.02,-6.41 l -265.87,-154.51 c -3.05,-1.77 -8.01,-1.77 -11.06,-0.01 l -176.13,101.69 c -3.07,1.77 -3.08,4.65 -0.04,6.41 l 265.88,154.52 c 3.05,1.76 8.02,1.76 11.08,0 z" /></clipPath><linearGradient
       id="linearGradient114"
       spreadMethod="pad"
       gradientTransform="matrix(187.365,419.7,419.7,-187.365,2471.76,1560.38)"
       gradientUnits="userSpaceOnUse"
       y2="0"
       x2="1"
       y1="0"
       x1="0"><stop
         id="stop110"
         offset="0"
         style="stop-opacity:1;stop-color:#73d1ea" /><stop
         id="stop112"
         offset="1"
         style="stop-opacity:1;stop-color:#edf1f0" /></linearGradient><clipPath
       id="clipPath212"
       clipPathUnits="userSpaceOnUse"><path
         id="path210"
         d="m 2742.42,4468.47 -2.24,1.26 c -0.97,0.52 -1.94,1.03 -2.9,1.5 -0.96,0.47 -1.92,0.92 -2.87,1.35 -0.94,0.42 -1.89,0.82 -2.83,1.2 -0.95,0.38 -1.9,0.74 -2.85,1.08 l -0.55,0.17 -0.2,0.07 -2.08,0.68 c -0.98,0.29 -1.95,0.56 -2.91,0.8 -0.98,0.25 -1.95,0.46 -2.9,0.65 -1.05,0.2 -2.07,0.37 -3.1,0.5 l -2.07,0.22 -0.31,0.03 -0.75,0.08 c -1.13,0.08 -2.23,0.12 -3.32,0.11 -1.24,-0.01 -2.46,-0.06 -3.66,-0.18 -1.39,-0.12 -2.75,-0.32 -4.07,-0.59 l -0.1,-0.02 -0.12,-0.04 c -1.62,-0.33 -3.2,-0.76 -4.72,-1.29 -1.99,-0.71 -3.9,-1.59 -5.7,-2.65 l -46.84,-27.21 c 3.19,1.85 6.68,3.16 10.42,3.94 l 0.14,0.04 c 3.72,0.75 7.7,0.96 11.89,0.6 l 0.33,-0.03 c 4.16,-0.39 8.52,-1.32 13.04,-2.85 l 0.21,-0.07 c 4.6,-1.57 9.36,-3.75 14.24,-6.56 l 1307.99,-755.18 46.83,27.22 z" /></clipPath><linearGradient
       id="linearGradient220"
       spreadMethod="pad"
       gradientTransform="matrix(-292.852,2176.42,-2176.42,-292.852,3551.56,2566)"
       gradientUnits="userSpaceOnUse"
       y2="0"
       x2="1"
       y1="0"
       x1="0"><stop
         id="stop214"
         offset="0"
         style="stop-opacity:1;stop-color:#73d1ea" /><stop
         id="stop216"
         offset="0.704338"
         style="stop-opacity:1;stop-color:#edf1f0" /><stop
         id="stop218"
         offset="1"
         style="stop-opacity:1;stop-color:#edf1f0" /></linearGradient><clipPath
       id="clipPath230"
       clipPathUnits="userSpaceOnUse"><path
         id="path228"
         d="m 4120.78,3594.55 c -0.04,1.14 -0.09,2.28 -0.16,3.42 -0.07,1.15 -0.16,2.29 -0.28,3.44 -0.11,1.15 -0.23,2.31 -0.38,3.46 -0.15,1.18 -0.31,2.37 -0.51,3.55 l -0.02,0.1 -0.01,0.08 c -0.17,1.13 -0.37,2.26 -0.58,3.4 -0.24,1.22 -0.48,2.45 -0.75,3.68 -0.27,1.23 -0.56,2.46 -0.86,3.7 -0.32,1.25 -0.64,2.5 -0.99,3.75 -0.26,0.97 -0.56,1.94 -0.85,2.91 l -0.07,0.22 -0.16,0.61 c -0.38,1.21 -0.78,2.43 -1.18,3.65 -0.41,1.19 -0.82,2.4 -1.26,3.6 -0.41,1.15 -0.84,2.3 -1.29,3.44 -0.44,1.15 -0.9,2.29 -1.38,3.44 l -1.12,2.62 -0.07,0.16 -0.26,0.59 c -0.5,1.15 -1.02,2.29 -1.56,3.42 -0.58,1.25 -1.17,2.48 -1.79,3.71 -0.71,1.42 -1.43,2.83 -2.18,4.23 -0.8,1.51 -1.66,2.99 -2.51,4.48 l -0.44,0.78 -0.53,0.94 c -1.67,2.83 -3.42,5.61 -5.23,8.34 -1.45,2.16 -2.94,4.29 -4.48,6.37 -1.02,1.39 -2.07,2.76 -3.13,4.12 -0.9,1.13 -1.81,2.26 -2.73,3.36 -0.89,1.08 -1.8,2.14 -2.73,3.19 -0.9,1.03 -1.82,2.05 -2.75,3.05 l -0.55,0.58 -0.2,0.21 -2.13,2.23 c -0.98,1 -1.97,1.98 -2.97,2.94 -1.03,0.98 -2.06,1.95 -3.11,2.89 -1.04,0.94 -2.08,1.85 -3.14,2.74 l -1.6,1.31 -0.36,0.29 -1.19,0.97 c -1.02,0.81 -2.06,1.6 -3.09,2.37 -1.03,0.75 -2.06,1.47 -3.08,2.18 -1,0.69 -2,1.35 -3.01,1.99 -0.98,0.63 -1.99,1.24 -2.99,1.83 l -0.7,0.41 -46.83,-27.22 c 4.83,-2.78 9.53,-6.07 14.08,-9.75 l 0.34,-0.28 c 4.49,-3.67 8.83,-7.72 12.96,-12.11 l 0.19,-0.21 c 8.33,-8.88 15.82,-19.08 22.13,-29.95 l 0.44,-0.79 c 3.06,-5.33 5.85,-10.82 8.29,-16.41 l 0.09,-0.2 c 2.49,-5.71 4.64,-11.51 6.39,-17.33 l 0.06,-0.23 c 1.76,-5.83 3.12,-11.67 4.04,-17.44 l 0.01,-0.07 c 0.93,-5.82 1.4,-11.56 1.38,-17.16 l -2.53,-893.71 c -0.01,-5.48 -0.52,-10.55 -1.43,-15.21 l -0.1,-0.43 c -0.93,-4.57 -2.26,-8.73 -3.98,-12.44 l -0.1,-0.24 c -1.47,-3.12 -3.34,-5.72 -5.3,-8.19 l -1.97,-2.44 c -2.33,-2.48 -4.85,-4.7 -7.71,-6.36 l 46.83,27.21 c 2.86,1.67 5.38,3.88 7.71,6.37 l 1.96,2.42 c 0.84,1.06 1.79,1.98 2.55,3.16 0.96,1.51 1.85,3.12 2.66,4.83 l 0.1,0.23 0.09,0.21 c 0.53,1.15 1.05,2.33 1.51,3.57 0.45,1.2 0.86,2.44 1.23,3.72 0.35,1.17 0.66,2.37 0.95,3.61 l 0.31,1.55 0.08,0.44 0.3,1.47 c 0.18,1.1 0.35,2.23 0.5,3.37 0.14,1.12 0.26,2.26 0.35,3.41 0.1,1.09 0.15,2.21 0.21,3.33 0.04,1.13 0.07,2.27 0.08,3.43 v 0.2 l 2.53,893.7 c 0.01,1.06 -0.01,2.13 -0.04,3.19 z" /></clipPath><linearGradient
       id="linearGradient236"
       spreadMethod="pad"
       gradientTransform="matrix(-117.225,0,0,-117.225,4120.82,3169.21)"
       gradientUnits="userSpaceOnUse"
       y2="0"
       x2="1"
       y1="0"
       x1="0"><stop
         id="stop232"
         offset="0"
         style="stop-opacity:1;stop-color:#5252ad" /><stop
         id="stop234"
         offset="1"
         style="stop-opacity:1;stop-color:#84d6e4" /></linearGradient></defs><g
     transform="matrix(1.7803859,0,0,-1.6819403,-116.00666,760.85708)"
     id="g10"><path
       d="m 343.259,58.1852 c -13.812,0 -27.64,3.05 -38.206,9.15 -13.839,7.9898 -18.651,19.232 -14.429,29.4668 L 250.396,73.425 c -3.42,-1.9879 -7.912,-2.982 -12.41,-2.982 -4.497,0 -9,0.9941 -12.442,2.9812 L 82.191,156.188 c -6.8855,3.976 -6.9215,10.421 -0.0812,14.397 L 100.204,181.1 c -16.222,12.248 -14.7263,29.832 4.544,41.031 10.495,6.099 24.267,9.146 38.06,9.146 11.534,0 23.085,-2.132 32.736,-6.394 l 48.987,28.468 c 3.42,1.987 7.912,2.981 12.409,2.981 4.498,0 9.001,-0.994 12.444,-2.981 l 143.352,-82.765 c 6.886,-3.976 6.922,-10.42 0.081,-14.396 l -62.629,-36.395 c 4.175,0.585 8.447,0.878 12.722,0.878 13.798,0 27.614,-3.05 38.18,-9.15 21.132,-12.2011 21.268,-31.9871 0.273,-44.1878 -10.498,-6.1 -24.293,-9.15 -38.104,-9.15"
       style="fill:#e5eef8;fill-opacity:1;fill-rule:nonzero;stroke:none;stroke-width:0.1"
       id="path16"
       inkscape:connector-curvature="0" /><path
       d="m 164.875,202.926 c -0.565,-6.281 -6.477,-10.547 -11.81,-12.846 -5.809,-2.503 -12.195,-3.513 -18.497,-3.432 -6.432,0.083 -12.999,1.314 -18.799,4.167 -5.061,2.491 -10.433,7.008 -10.416,13.152 -0.012,-4.474 0.301,-8.171 3.525,-11.664 4.151,-4.496 10.4,-6.918 16.278,-8.132 11.469,-2.367 27.084,-1.224 35.796,7.605 3.505,3.552 3.984,7.296 3.997,12.021 -0.012,-0.291 -0.037,-0.582 -0.074,-0.871"
       style="fill:#b5cded;fill-opacity:1;fill-rule:nonzero;stroke:none;stroke-width:0.1"
       id="path18"
       inkscape:connector-curvature="0" /><path
       d="m 156.146,216.095 c 11.674,-6.741 11.75,-17.67 0.151,-24.41 -11.598,-6.741 -30.481,-6.741 -42.154,0 -11.675,6.74 -11.723,17.669 -0.124,24.41 11.598,6.74 30.454,6.74 42.127,0"
       style="fill:#e7effa;fill-opacity:1;fill-rule:nonzero;stroke:none;stroke-width:0.1"
       id="path20"
       inkscape:connector-curvature="0" /><path
       d="m 140.46,229.719 -0.074,-26.048 -4.556,-2.648 0.073,26.047 4.557,2.649"
       style="fill:#cddaf2;fill-opacity:1;fill-rule:nonzero;stroke:none;stroke-width:0.1"
       id="path22"
       inkscape:connector-curvature="0" /><path
       d="m 135.903,227.07 -0.073,-26.047 -4.587,2.648 0.073,26.048 4.587,-2.649"
       style="fill:#8baade;fill-opacity:1;fill-rule:nonzero;stroke:none;stroke-width:0.1"
       id="path24"
       inkscape:connector-curvature="0" /><path
       d="m 140.46,229.719 -4.557,-2.649 -4.587,2.649 4.558,2.648 4.586,-2.648"
       style="fill:#5fa6df;fill-opacity:1;fill-rule:nonzero;stroke:none;stroke-width:0.1"
       id="path26"
       inkscape:connector-curvature="0" /><path
       d="m 106.266,314.174 c 0,0 -9.3398,-2.491 -11.8305,-8.094 -2.4906,-5.604 -1.8679,-47.944 11.2075,-65.379 13.076,-17.433 37.359,-19.925 42.963,-17.433 5.603,2.49 37.981,18.678 40.472,26.773 2.49,8.095 -9.962,14.321 -16.811,17.434 -6.85,3.113 -11.208,7.472 -14.944,18.68 -3.736,11.207 -5.604,30.51 -9.963,33.623 -4.358,3.113 -14.943,8.094 -41.094,-5.604"
       style="fill:#5faee4;fill-opacity:1;fill-rule:nonzero;stroke:none;stroke-width:0.1"
       id="path28"
       inkscape:connector-curvature="0" /><path
       d="m 162.092,325.44 c 0,0 -15.322,12.684 -18.437,12.978 -3.738,0.292 -8.401,-0.978 -9.618,-6.277 -1.218,-5.299 1.606,-9.331 4.416,-10.873 2.81,-1.542 27.466,-13.242 31.825,-13.219 4.358,0.023 7.14,3.773 4.314,8.428 -2.826,4.655 -12.5,8.963 -12.5,8.963"
       style="fill:#e4eaf5;fill-opacity:1;fill-rule:nonzero;stroke:none;stroke-width:0.1"
       id="path30"
       inkscape:connector-curvature="0" /><path
       d="m 135.606,341.314 c 0,0 -0.031,-0.195 0.031,-0.503 0.228,-1.137 0.943,-4.04 1.11,-5.259 0.159,-1.168 -1.072,-3.266 -4.243,-3.358 -3.171,-0.092 -8.611,0.968 -10.586,4.655 0.112,0.678 -0.459,7.658 -1.077,11.121 l 14.765,-6.656"
       style="fill:#e25736;fill-opacity:1;fill-rule:nonzero;stroke:none;stroke-width:0.1"
       id="path32"
       inkscape:connector-curvature="0" /><path
       d="m 142.419,364.375 c -2.291,9.599 -10.238,14.721 -18.82,12.262 0,0 -9.365,-1.406 -13.139,-9.88 -3.774,-8.472 2.71,-15.12 6.859,-19.309 1.747,-1.718 3.068,-3.045 3.903,-3.891 0.302,-0.319 0.6,-0.644 0.914,-0.933 l 0.089,-0.091 0.009,0.009 c 2.818,-2.553 5.974,-3.922 8.285,-4.488 3.842,-0.94 8.288,-0.075 10.577,2.622 2.289,2.697 3.614,14.098 1.323,23.699"
       style="fill:#f47147;fill-opacity:1;fill-rule:nonzero;stroke:none;stroke-width:0.1"
       id="path34"
       inkscape:connector-curvature="0" /><path
       d="m 122.625,340.561 c 0,0 -15.084,-11.941 -16.447,-15.733 -1.363,-3.792 -1.184,-14.151 2.378,-20.886 3.563,-6.735 3.635,-32.16 5.04,-37.064 1.405,-4.904 14.863,-5.81 23.064,-3.801 8.201,2.009 21.228,8.875 18.61,18.185 -3.867,13.749 -2.948,27.599 -2.637,31.974 0.311,4.375 -0.799,15.27 -3.179,22.493 -0.501,1.524 -5.875,3.653 -5.875,3.653 0,0 -5.573,2.593 -20.954,1.179"
       style="fill:#2746a2;fill-opacity:1;fill-rule:nonzero;stroke:none;stroke-width:0.1"
       id="path36"
       inkscape:connector-curvature="0" /><path
       d="m 125.36,283.664 c -6.226,7.887 2.906,34.868 -7.886,42.34 -3.292,2.279 -6.118,2.854 -8.459,2.559 -1.447,-1.518 -2.518,-2.85 -2.837,-3.735 -1.363,-3.792 -1.184,-14.151 2.378,-20.886 3.563,-6.735 3.635,-32.159 5.04,-37.064 1.279,-4.464 12.535,-5.607 20.732,-4.262 l 11.787,12.331 c 0,0 -14.528,0.83 -20.755,8.717"
       style="fill:#273c80;fill-opacity:1;fill-rule:nonzero;stroke:none;stroke-width:0.1"
       id="path38"
       inkscape:connector-curvature="0" /><path
       d="m 122.115,338.538 c 13.114,1.205 19.149,-1.051 20.648,-1.744 0.229,-2.639 0.338,-6.125 -0.191,-9.314 -1.027,-6.198 -3.495,-23.224 -3.495,-23.224 0,0 -8.091,13.988 -13.418,19.745 -3.749,4.052 -7.44,7.87 -9.302,9.781 3.143,2.683 5.758,4.756 5.758,4.756"
       style="fill:#e4eaf5;fill-opacity:1;fill-rule:nonzero;stroke:none;stroke-width:0.1"
       id="path40"
       inkscape:connector-curvature="0" /><path
       d="m 135.606,341.314 c 0,0 -0.031,-0.195 0.031,-0.503 0.228,-1.137 0.943,-4.04 1.11,-5.259 0.159,-1.168 -1.072,-3.266 -4.243,-3.358 -3.171,-0.092 -8.611,0.968 -10.586,4.655 0.112,0.678 -0.459,7.658 -1.077,11.121 l 14.765,-6.656"
       style="fill:#f47147;fill-opacity:1;fill-rule:nonzero;stroke:none;stroke-width:0.1"
       id="path42"
       inkscape:connector-curvature="0" /><path
       d="m 142.419,364.375 c -2.291,9.599 -10.238,14.721 -18.82,12.262 0,0 -9.365,-1.406 -13.139,-9.88 -3.774,-8.472 2.71,-15.12 6.859,-19.309 1.747,-1.718 3.068,-3.045 3.903,-3.891 0.302,-0.319 0.6,-0.644 0.914,-0.933 l 0.089,-0.091 0.009,0.009 c 2.818,-2.553 5.974,-3.922 8.285,-4.488 3.842,-0.94 8.288,-0.075 10.577,2.622 2.289,2.697 3.614,14.098 1.323,23.699"
       style="fill:#f78d65;fill-opacity:1;fill-rule:nonzero;stroke:none;stroke-width:0.1"
       id="path44"
       inkscape:connector-curvature="0" /><path
       d="m 140.907,324.017 -5.845,5.177 -4.676,-8.183 -4.715,2.977 c 5.327,-5.765 13.406,-19.732 13.406,-19.732 0,0 2.059,14.203 3.198,21.386 l -1.368,-1.625"
       style="fill:#d2dde7;fill-opacity:1;fill-rule:nonzero;stroke:none;stroke-width:0.1"
       id="path46"
       inkscape:connector-curvature="0" /><path
       d="m 140.505,313.989 -2.604,9.193 0.393,3.149 -3.232,2.863 -2.269,-3.97 2.603,-2.376 0.708,-13.649 c 1.774,-2.872 2.973,-4.943 2.973,-4.943 0,0 0.654,4.511 1.428,9.733"
       style="fill:#599ddb;fill-opacity:1;fill-rule:nonzero;stroke:none;stroke-width:0.1"
       id="path48"
       inkscape:connector-curvature="0" /><path
       d="m 109.379,367.722 c 0,0 -3.736,-6.849 0.934,-14.01 4.67,-7.161 9.675,-10.347 10.909,-10.155 1.233,0.193 1.855,0.504 1.544,1.438 -0.311,0.934 -1.868,4.047 -1.868,4.047 0,0 -5.293,0.623 -5.293,4.047 0,3.425 1.869,4.048 4.048,3.114 2.179,-0.934 2.491,-2.491 3.736,-3.736 1.245,-1.246 1.556,-4.359 2.49,-4.048 0.934,0.312 1.557,1.246 1.557,2.802 0,1.557 0,3.425 -1.868,5.293 -1.868,1.868 0.311,4.981 -1.557,7.472 -1.867,2.49 -3.113,3.424 -3.113,3.424 0,0 1.246,-1.868 7.472,-0.622 6.226,1.245 9.028,0.934 11.519,2.49 2.49,1.557 1.868,4.981 0.311,6.226 -1.556,1.246 -5.292,1.869 -9.651,3.425 -4.359,1.557 -6.849,0.623 -12.141,-0.622 -5.293,-1.246 -10.274,-6.849 -9.029,-10.585"
       style="fill:#e25736;fill-opacity:1;fill-rule:nonzero;stroke:none;stroke-width:0.1"
       id="path50"
       inkscape:connector-curvature="0" /><path
       d="m 197.172,180.305 c 0,0 -0.207,-3.114 3.114,-5.397 3.32,-2.283 3.943,-3.735 6.641,-4.773 2.698,-1.038 5.189,-4.567 3.944,-7.057 -1.246,-2.49 -7.057,-2.905 -10.793,-1.868 -3.736,1.038 -4.358,4.358 -7.887,5.603 -3.528,1.247 -4.774,2.699 -5.811,3.737 -1.038,1.038 -0.623,5.188 -0.623,5.188 l 12.66,4.152"
       style="fill:#322441;fill-opacity:1;fill-rule:nonzero;stroke:none;stroke-width:0.1"
       id="path52"
       inkscape:connector-curvature="0" /><path
       d="m 213.361,192.343 c 0,0 -0.207,-3.114 3.114,-5.397 3.32,-2.283 3.943,-3.736 6.641,-4.773 2.698,-1.038 5.189,-4.567 3.944,-7.057 -1.246,-2.491 -7.057,-2.906 -10.793,-1.868 -3.736,1.038 -4.359,4.358 -7.887,5.604 -3.528,1.245 -4.774,2.698 -5.811,3.736 -1.038,1.037 -0.623,5.188 -0.623,5.188 l 12.66,4.152"
       style="fill:#322441;fill-opacity:1;fill-rule:nonzero;stroke:none;stroke-width:0.1"
       id="path54"
       inkscape:connector-curvature="0" /><path
       d="m 114.568,266.749 c 0,0 0.622,-2.491 0.622,-4.67 0,-2.179 -1.556,-8.406 1.557,-15.878 3.113,-7.472 23.972,-9.028 30.821,-12.141 6.849,-3.114 10.896,-5.915 12.142,-6.849 1.245,-0.935 3.009,-14.113 8.406,-22 5.396,-7.888 14.528,-23.661 16.603,-30.303 0,0 5.906,-1.393 11.208,2.075 2.776,1.817 2.49,2.907 2.49,2.907 0,0 -10.792,23.66 -13.282,33.623 -2.491,9.962 -5.397,21.585 -9.963,24.49 -4.566,2.906 -19.094,13.284 -22.415,15.359 -3.321,2.075 -12.269,8.637 -14.022,12.62 -1.752,3.984 -18.771,10.418 -24.167,0.767"
       style="fill:#939fc2;fill-opacity:1;fill-rule:nonzero;stroke:none;stroke-width:0.1"
       id="path56"
       inkscape:connector-curvature="0" /><path
       d="m 131.69,277.022 c 0,0 0.623,-2.49 0.623,-4.669 0,-2.18 -1.556,-8.406 1.557,-15.878 3.113,-7.472 23.972,-9.028 30.821,-12.141 6.849,-3.113 10.896,-5.916 12.142,-6.85 1.245,-0.933 3.009,-14.113 8.405,-22 5.397,-7.886 14.529,-23.661 16.604,-30.302 0,0 5.906,-1.393 11.208,2.076 2.776,1.815 2.491,2.905 2.491,2.905 0,0 -10.793,23.661 -13.284,33.623 -2.49,9.963 -5.396,21.585 -9.962,24.491 -4.566,2.906 -19.094,13.283 -22.415,15.359 -3.321,2.075 -12.27,8.637 -14.022,12.62 -1.752,3.984 -18.771,10.417 -24.168,0.766"
       style="fill:#939fc2;fill-opacity:1;fill-rule:nonzero;stroke:none;stroke-width:0.1"
       id="path58"
       inkscape:connector-curvature="0" /><path
       d="m 215.743,198.303 -0.179,-63.317 -11.077,-6.436 0.18,63.315 11.076,6.438"
       style="fill:#cddaf2;fill-opacity:1;fill-rule:nonzero;stroke:none;stroke-width:0.1"
       id="path60"
       inkscape:connector-curvature="0" /><path
       d="m 204.667,191.865 -0.18,-63.315 -11.149,6.436 0.179,63.317 11.15,-6.438"
       style="fill:#8baade;fill-opacity:1;fill-rule:nonzero;stroke:none;stroke-width:0.1"
       id="path62"
       inkscape:connector-curvature="0" /><path
       d="m 215.743,198.303 -11.076,-6.438 -11.15,6.438 11.077,6.436 11.149,-6.436"
       style="fill:#5fa6df;fill-opacity:1;fill-rule:nonzero;stroke:none;stroke-width:0.1"
       id="path64"
       inkscape:connector-curvature="0" /><path
       d="m 397.88,241.675 c -0.016,-0.185 -0.029,-0.369 -0.063,-0.553 -0.028,-0.15 -0.073,-0.301 -0.113,-0.45 -0.046,-0.176 -0.089,-0.351 -0.15,-0.525 -0.051,-0.143 -0.119,-0.286 -0.181,-0.428 -0.08,-0.184 -0.159,-0.366 -0.257,-0.547 -0.07,-0.132 -0.155,-0.261 -0.235,-0.391 -0.127,-0.206 -0.262,-0.411 -0.413,-0.613 -0.146,-0.194 -0.296,-0.389 -0.464,-0.579 l -0.115,-0.135 c -0.227,-0.247 -0.477,-0.489 -0.741,-0.726 -0.168,-0.153 -0.356,-0.299 -0.54,-0.448 -0.162,-0.129 -0.317,-0.26 -0.491,-0.386 -0.199,-0.146 -0.419,-0.284 -0.634,-0.423 -0.219,-0.144 -0.428,-0.291 -0.666,-0.429 L 250.396,152.276 c -1.172,-0.681 -2.47,-1.246 -3.851,-1.693 -1.066,-0.346 -2.182,-0.622 -3.327,-0.828 -0.737,-0.133 -1.486,-0.237 -2.241,-0.313 -0.646,-0.064 -1.297,-0.107 -1.949,-0.13 -0.599,-0.02 -1.2,-0.023 -1.8,-0.008 -0.579,0.014 -1.157,0.046 -1.731,0.092 l -0.029,-10.151 c 0.574,-0.047 1.153,-0.078 1.731,-0.092 0.6,-0.015 1.201,-0.012 1.8,0.008 0.652,0.023 1.303,0.066 1.949,0.13 0.756,0.075 1.505,0.18 2.241,0.313 1.145,0.206 2.261,0.482 3.328,0.828 1.38,0.447 2.678,1.011 3.851,1.693 l 142.42,82.766 0.215,0.127 c 0.16,0.096 0.297,0.201 0.449,0.299 0.216,0.141 0.437,0.28 0.637,0.425 0.173,0.126 0.328,0.257 0.489,0.387 0.185,0.148 0.373,0.295 0.542,0.447 l 0.109,0.09 c 0.225,0.208 0.433,0.421 0.63,0.637 l 0.118,0.135 c 0.116,0.133 0.235,0.265 0.341,0.4 l 0.121,0.179 c 0.152,0.202 0.286,0.407 0.414,0.613 l 0.172,0.258 0.063,0.133 c 0.098,0.18 0.177,0.363 0.256,0.546 0.047,0.107 0.109,0.212 0.15,0.32 l 0.031,0.109 c 0.062,0.175 0.105,0.35 0.151,0.525 0.031,0.119 0.078,0.236 0.101,0.355 l 0.011,0.095 c 0.034,0.183 0.047,0.368 0.064,0.553 0.01,0.121 0.038,0.24 0.041,0.36 l 0.003,0.154 0.028,10.151 c 0,-0.171 -0.028,-0.343 -0.044,-0.514"
       style="fill:#b5cded;fill-opacity:1;fill-rule:nonzero;stroke:none;stroke-width:0.1"
       id="path66"
       inkscape:connector-curvature="0" /><path
       d="m 233.789,149.588 c -0.588,0.083 -1.17,0.183 -1.743,0.303 -0.622,0.129 -1.234,0.278 -1.833,0.449 -0.733,0.209 -1.446,0.449 -2.134,0.721 -0.892,0.352 -1.742,0.757 -2.535,1.215 L 82.191,235.041 c -3.4644,2 -5.1949,4.626 -5.1875,7.248 l -0.0289,-10.151 c -0.0074,-2.622 1.7231,-5.248 5.1879,-7.248 L 225.515,142.125 c 0.793,-0.458 1.643,-0.863 2.535,-1.216 0.688,-0.271 1.401,-0.512 2.134,-0.721 0.599,-0.169 1.212,-0.32 1.834,-0.449 0.572,-0.118 1.154,-0.219 1.742,-0.302 0.565,-0.081 1.135,-0.144 1.708,-0.192 l 0.029,10.151 c -0.574,0.048 -1.144,0.112 -1.708,0.192"
       style="fill:#b5cded;fill-opacity:1;fill-rule:nonzero;stroke:none;stroke-width:0.1"
       id="path68"
       inkscape:connector-curvature="0" /><path
       d="m 392.736,249.036 c 6.886,-3.975 6.922,-10.421 0.081,-14.396 L 250.396,151.874 c -6.84,-3.976 -17.967,-3.976 -24.852,0 L 82.191,234.639 c -6.8851,3.975 -6.9215,10.42 -0.0812,14.395 L 224.531,331.8 c 6.841,3.975 17.967,3.975 24.853,0 l 143.352,-82.764"
       style="fill:#e7effa;fill-opacity:1;fill-rule:nonzero;stroke:none;stroke-width:0.1"
       id="path70"
       inkscape:connector-curvature="0" /><path
       d="m 238.664,219.059 39.244,-22.807 27.605,15.937 -39.243,22.807 -27.606,-15.937"
       style="fill:#ffffff;fill-opacity:1;fill-rule:nonzero;stroke:none;stroke-width:0.1"
       id="path72"
       inkscape:connector-curvature="0" /><path
       d="m 272.019,224.733 -6.175,-3.587 -7.819,2.303 c 2.183,2.497 7.453,3.49 11.771,2.218 0.863,-0.255 1.536,-0.537 2.223,-0.934"
       style="fill:#f03963;fill-opacity:1;fill-rule:nonzero;stroke:none;stroke-width:0.1"
       id="path74"
       inkscape:connector-curvature="0" /><path
       d="m 273.434,224.268 c 4.149,-2.397 4.17,-6.282 0.047,-8.677 -4.122,-2.396 -10.828,-2.397 -14.977,0 -3.32,1.917 -4.1,4.708 -1.988,7.123 l 9.452,-2.785 7.466,4.339"
       style="fill:#a386ca;fill-opacity:1;fill-rule:nonzero;stroke:none;stroke-width:0.1"
       id="path76"
       inkscape:connector-curvature="0" /><path
       d="m 267.757,207.215 c -0.345,-0.199 -0.347,-0.516 -0.005,-0.714 0.342,-0.198 0.889,-0.198 1.232,0 l 17.519,10.114 c 0.344,0.199 0.346,0.515 0.004,0.714 -0.342,0.198 -0.888,0.198 -1.232,0 l -17.518,-10.114"
       style="fill:#b5cded;fill-opacity:1;fill-rule:nonzero;stroke:none;stroke-width:0.1"
       id="path78"
       inkscape:connector-curvature="0" /><path
       d="m 279.859,211.863 c -0.337,-0.194 -0.338,-0.518 -0.004,-0.713 0.342,-0.199 0.901,-0.199 1.239,-0.004 l 7.434,4.292 c 0.344,0.199 0.339,0.519 -0.003,0.717 -0.335,0.196 -0.887,0.199 -1.231,0 l -7.435,-4.292"
       style="fill:#d6dae1;fill-opacity:1;fill-rule:nonzero;stroke:none;stroke-width:0.1"
       id="path80"
       inkscape:connector-curvature="0" /><path
       d="m 277.554,208.34 c -0.344,-0.198 -0.352,-0.519 -0.01,-0.717 0.342,-0.199 0.894,-0.195 1.238,0.003 l 11.632,6.717 c 0.344,0.198 0.346,0.514 0.004,0.713 -0.342,0.199 -0.888,0.199 -1.231,0 l -11.633,-6.716"
       style="fill:#d6dae1;fill-opacity:1;fill-rule:nonzero;stroke:none;stroke-width:0.1"
       id="path82"
       inkscape:connector-curvature="0" /><path
       d="m 284.869,186.576 c 0.955,-0.552 0.958,-1.443 0.012,-1.993 l -28.012,-16.265 c -0.949,-0.55 -2.486,-0.55 -3.441,0 l -19.552,11.289 c -0.953,0.55 -0.96,1.442 -0.011,1.993 l 28.012,16.264 c 0.946,0.55 2.487,0.55 3.44,0 l 19.552,-11.288"
       style="fill:#f6fbfe;fill-opacity:1;fill-rule:nonzero;stroke:none;stroke-width:0.1"
       id="path84"
       inkscape:connector-curvature="0" /><g
       transform="scale(0.1)"
       id="g86"><g
         id="g88"
         clip-path="url(#clipPath92)"><path
           d="m 2855.82,1855.01 -0.09,-0.76 -0.15,-0.63 -0.21,-0.72 -0.25,-0.6 -0.35,-0.75 -0.33,-0.53 -0.57,-0.86 -0.39,-0.49 -1.04,-1.11 -0.4,-0.4 -0.75,-0.61 -0.68,-0.54 -0.87,-0.58 -0.93,-0.6 -280.12,-162.65 c -1.06,-0.61 -2.22,-1.13 -3.4,-1.61 l -0.95,-0.36 -2.29,-0.69 -2.43,-0.62 c -0.97,-0.19 -1.95,-0.38 -2.95,-0.5 l -0.72,-0.1 c -1.36,-0.15 -2.73,-0.22 -4.09,-0.23 h -0.65 c -1.36,0.01 -2.7,0.08 -4.04,0.23 l -0.6,0.07 c -1.33,0.15 -2.63,0.38 -3.9,0.66 l -0.71,0.18 c -1.16,0.28 -2.28,0.63 -3.38,1.02 l -0.58,0.21 c -1.31,0.49 -2.56,1.08 -3.72,1.74 l -195.52,112.89 c -3.6,2.07 -5.85,4.64 -6.74,7.33 -0.3,0.89 -0.45,1.8 -0.45,2.7 l -0.07,-11.22 0.12,-1.35 c 0.51,-3.17 2.87,-6.25 7.07,-8.68 l 195.52,-112.89 c 1.1,-0.63 2.28,-1.19 3.52,-1.68 l 0.2,-0.07 0.59,-0.2 2.17,-0.73 1.2,-0.3 0.71,-0.17 0.63,-0.16 2.4,-0.42 0.87,-0.09 0.6,-0.06 0.9,-0.1 2.39,-0.14 0.75,0.01 h 0.65 l 1.08,0.01 c 0.91,0.03 1.81,0.09 2.7,0.18 l 0.31,0.04 0.72,0.1 2.06,0.29 0.89,0.22 2.44,0.61 1.28,0.31 1,0.38 0.95,0.36 c 1.2,0.48 2.34,1 3.4,1.61 l 280.12,162.65 0.3,0.18 0.63,0.42 0.87,0.58 0.68,0.54 0.75,0.61 0.15,0.13 0.25,0.27 1.04,1.11 0.22,0.24 0.17,0.25 0.58,0.85 0.23,0.36 0.09,0.18 0.35,0.75 0.21,0.45 0.04,0.15 0.21,0.72 0.14,0.5 0.01,0.13 0.09,0.77 0.06,0.5 0.01,0.21 0.06,11.21 -0.06,-0.71"
           style="fill:url(#linearGradient98);fill-opacity:1;fill-rule:nonzero;stroke:none"
           id="path100"
           inkscape:connector-curvature="0" /></g></g><g
       transform="scale(0.1)"
       id="g102"><g
         id="g104"
         clip-path="url(#clipPath108)"><path
           d="m 2819.81,1862.21 c 3.06,-1.76 3.08,-4.63 0.02,-6.41 l -265.87,-154.51 c -3.05,-1.77 -8.01,-1.77 -11.06,-0.01 l -176.13,101.69 c -3.07,1.77 -3.08,4.65 -0.04,6.41 l 265.88,154.52 c 3.05,1.76 8.02,1.76 11.08,0 l 176.12,-101.69"
           style="fill:url(#linearGradient114);fill-opacity:1;fill-rule:nonzero;stroke:none"
           id="path116"
           inkscape:connector-curvature="0" /></g></g><path
       d="m 151.494,278.833 39.243,-22.807 27.605,15.938 -39.243,22.806 -27.605,-15.937"
       style="fill:#ffffff;fill-opacity:1;fill-rule:nonzero;stroke:none;stroke-width:0.1"
       id="path118"
       inkscape:connector-curvature="0" /><path
       d="m 184.848,284.508 -6.175,-3.588 -7.819,2.304 c 2.183,2.496 7.453,3.489 11.771,2.217 0.864,-0.254 1.536,-0.537 2.223,-0.933"
       style="fill:#a386ca;fill-opacity:1;fill-rule:nonzero;stroke:none;stroke-width:0.1"
       id="path120"
       inkscape:connector-curvature="0" /><path
       d="m 186.263,284.042 c 4.15,-2.396 4.171,-6.281 0.048,-8.677 -4.123,-2.396 -10.829,-2.396 -14.978,0 -3.32,1.917 -4.1,4.708 -1.988,7.123 l 9.452,-2.785 7.466,4.339"
       style="fill:#60ccf5;fill-opacity:1;fill-rule:nonzero;stroke:none;stroke-width:0.1"
       id="path122"
       inkscape:connector-curvature="0" /><path
       d="m 180.586,266.989 c -0.344,-0.199 -0.346,-0.515 -0.004,-0.714 0.341,-0.198 0.888,-0.198 1.231,0 l 17.519,10.115 c 0.344,0.198 0.346,0.514 0.004,0.713 -0.342,0.199 -0.888,0.199 -1.232,0 l -17.518,-10.114"
       style="fill:#b5cded;fill-opacity:1;fill-rule:nonzero;stroke:none;stroke-width:0.1"
       id="path124"
       inkscape:connector-curvature="0" /><path
       d="m 192.689,271.638 c -0.337,-0.195 -0.339,-0.519 -0.004,-0.714 0.342,-0.198 0.9,-0.198 1.238,-0.004 l 7.434,4.292 c 0.345,0.199 0.34,0.519 -0.002,0.718 -0.335,0.195 -0.888,0.198 -1.232,0 l -7.434,-4.292"
       style="fill:#d6dae1;fill-opacity:1;fill-rule:nonzero;stroke:none;stroke-width:0.1"
       id="path126"
       inkscape:connector-curvature="0" /><path
       d="m 190.383,268.114 c -0.343,-0.198 -0.352,-0.518 -0.01,-0.717 0.342,-0.199 0.894,-0.195 1.238,0.003 l 11.633,6.717 c 0.343,0.198 0.345,0.514 0.004,0.713 -0.342,0.199 -0.888,0.199 -1.232,0 l -11.633,-6.716"
       style="fill:#60ccf5;fill-opacity:1;fill-rule:nonzero;stroke:none;stroke-width:0.1"
       id="path128"
       inkscape:connector-curvature="0" /><path
       d="m 214.606,208.537 -0.006,-2.357 -5.437,-3.16 0.006,2.357 5.437,3.16"
       style="fill:#503b9d;fill-opacity:1;fill-rule:nonzero;stroke:none;stroke-width:0.1"
       id="path130"
       inkscape:connector-curvature="0" /><path
       d="m 209.169,205.377 -0.006,-2.357 -46.234,26.692 0.007,2.357 46.233,-26.692"
       style="fill:#3f2c8c;fill-opacity:1;fill-rule:nonzero;stroke:none;stroke-width:0.1"
       id="path132"
       inkscape:connector-curvature="0" /><path
       d="m 214.606,208.537 -5.437,-3.16 -46.233,26.692 5.438,3.16 46.232,-26.692"
       style="fill:#6d66b9;fill-opacity:1;fill-rule:nonzero;stroke:none;stroke-width:0.1"
       id="path134"
       inkscape:connector-curvature="0" /><path
       d="m 194.058,208.083 -0.007,-2.357 -5.434,-3.159 0.007,2.358 5.434,3.158"
       style="fill:#527bc7;fill-opacity:1;fill-rule:nonzero;stroke:none;stroke-width:0.1"
       id="path136"
       inkscape:connector-curvature="0" /><path
       d="m 188.624,204.925 -0.007,-2.358 -36.317,20.968 0.007,2.358 36.317,-20.968"
       style="fill:#474faa;fill-opacity:1;fill-rule:nonzero;stroke:none;stroke-width:0.1"
       id="path138"
       inkscape:connector-curvature="0" /><path
       d="m 194.058,208.083 -5.434,-3.158 -36.317,20.968 5.434,3.158 36.317,-20.968"
       style="fill:#73abe1;fill-opacity:1;fill-rule:nonzero;stroke:none;stroke-width:0.1"
       id="path140"
       inkscape:connector-curvature="0" /><path
       d="m 163.727,213.276 -0.007,-2.357 -5.434,-3.157 0.007,2.357 5.434,3.157"
       style="fill:#ed1669;fill-opacity:1;fill-rule:nonzero;stroke:none;stroke-width:0.1"
       id="path142"
       inkscape:connector-curvature="0" /><path
       d="m 158.293,210.119 -0.007,-2.357 -16.619,9.594 0.007,2.358 16.619,-9.595"
       style="fill:#ee208e;fill-opacity:1;fill-rule:nonzero;stroke:none;stroke-width:0.1"
       id="path144"
       inkscape:connector-curvature="0" /><path
       d="m 163.727,213.276 -5.434,-3.157 -16.619,9.595 5.434,3.157 16.619,-9.595"
       style="fill:#ee1f9a;fill-opacity:1;fill-rule:nonzero;stroke:none;stroke-width:0.1"
       id="path146"
       inkscape:connector-curvature="0" /><path
       d="m 127.048,226.299 c -0.542,-0.314 -0.545,-0.812 -0.006,-1.125 0.538,-0.313 1.399,-0.313 1.941,0 l 27.613,15.942 c 0.543,0.314 0.546,0.812 0.007,1.125 -0.539,0.314 -1.399,0.314 -1.942,0 l -27.613,-15.942"
       style="fill:#b5cded;fill-opacity:1;fill-rule:nonzero;stroke:none;stroke-width:0.1"
       id="path148"
       inkscape:connector-curvature="0" /><path
       d="m 146.125,233.626 c -0.532,-0.307 -0.535,-0.817 -0.006,-1.124 0.539,-0.314 1.42,-0.314 1.952,-0.006 l 11.718,6.766 c 0.542,0.312 0.535,0.817 -0.004,1.13 -0.529,0.307 -1.399,0.313 -1.942,0 l -11.718,-6.766"
       style="fill:#b5cded;fill-opacity:1;fill-rule:nonzero;stroke:none;stroke-width:0.1"
       id="path150"
       inkscape:connector-curvature="0" /><path
       d="m 142.491,228.072 c -0.542,-0.312 -0.555,-0.817 -0.016,-1.13 0.539,-0.313 1.409,-0.307 1.951,0.006 l 18.336,10.586 c 0.542,0.313 0.545,0.812 0.006,1.124 -0.539,0.314 -1.399,0.314 -1.942,0 l -18.335,-10.586"
       style="fill:#b5cded;fill-opacity:1;fill-rule:nonzero;stroke:none;stroke-width:0.1"
       id="path152"
       inkscape:connector-curvature="0" /><path
       d="m 140.834,253.613 -4.388,-2.55 c -3.983,2.174 -10.241,2.137 -14.117,-0.115 l -0.232,-0.143 -4.418,2.551 0.236,0.141 c 6.297,3.66 16.498,3.698 22.919,0.116"
       style="fill:#90cff2;fill-opacity:1;fill-rule:nonzero;stroke:none;stroke-width:0.1"
       id="path154"
       inkscape:connector-curvature="0" /><path
       d="m 141.511,253.214 c 5.213,-3.264 5.752,-8.127 1.603,-11.706 l -4.553,2.629 c 1.826,2.092 1.344,4.689 -1.444,6.524 l 4.394,2.553"
       style="fill:#90cff2;fill-opacity:1;fill-rule:nonzero;stroke:none;stroke-width:0.1"
       id="path156"
       inkscape:connector-curvature="0" /><path
       d="m 142.545,241.048 c -0.433,-0.329 -0.908,-0.647 -1.427,-0.947 -6.207,-3.608 -16.203,-3.698 -22.639,-0.271 l 4.393,2.553 c 3.991,-2.021 10.048,-1.933 13.832,0.265 0.525,0.306 0.977,0.637 1.361,0.987 l 4.48,-2.587"
       style="fill:#67a5de;fill-opacity:1;fill-rule:nonzero;stroke:none;stroke-width:0.1"
       id="path158"
       inkscape:connector-curvature="0" /><path
       d="m 121.472,250.379 c -2.998,-2.258 -2.76,-5.494 0.704,-7.609 l -4.388,-2.55 c -5.9,3.526 -6.159,9.042 -0.755,12.722 l 4.439,-2.563"
       style="fill:#67a5de;fill-opacity:1;fill-rule:nonzero;stroke:none;stroke-width:0.1"
       id="path160"
       inkscape:connector-curvature="0" /><path
       d="m 227.764,371.459 c 2.016,-1.163 3.651,-3.995 3.644,-6.312 l -0.039,-35.291 c -0.007,-2.316 -1.653,-3.254 -3.668,-2.09 l -9.842,5.682 -0.479,-0.667 -1.92,-2.703 -1.905,4.911 -0.473,1.217 -9.841,5.682 c -2.016,1.164 -3.645,3.992 -3.638,6.308 l 0.039,35.291 c 0.007,2.317 1.646,3.258 3.662,2.094 l 24.46,-14.122"
       style="fill:#73abe1;fill-opacity:1;fill-rule:nonzero;stroke:none;stroke-width:0.1"
       id="path162"
       inkscape:connector-curvature="0" /><path
       d="m 210.702,371.081 -0.003,-0.994 c -0.002,-0.585 -0.636,-0.949 -1.142,-0.655 l -4.684,2.717 c -0.236,0.137 -0.38,0.389 -0.379,0.66 l 0.003,0.993 c 10e-4,0.586 0.635,0.95 1.142,0.656 l 4.684,-2.718 c 0.235,-0.136 0.38,-0.387 0.379,-0.659"
       style="fill:#ffffff;fill-opacity:1;fill-rule:nonzero;stroke:none;stroke-width:0.1"
       id="path164"
       inkscape:connector-curvature="0" /><path
       d="m 225.52,357.589 -0.003,-0.995 c -0.001,-0.585 -0.635,-0.949 -1.141,-0.657 l -19.516,11.268 c -0.236,0.136 -0.381,0.389 -0.381,0.661 l 0.003,0.995 c 0.002,0.585 0.635,0.949 1.142,0.657 L 225.14,358.25 c 0.235,-0.136 0.381,-0.388 0.38,-0.661"
       style="fill:#b5cded;fill-opacity:1;fill-rule:nonzero;stroke:none;stroke-width:0.1"
       id="path166"
       inkscape:connector-curvature="0" /><path
       d="m 209.519,357.979 -0.003,-1.139 -2.643,-9.024 -1.132,0.654 2.632,9.005 -3.451,1.992 0.003,1.163 4.594,-2.651"
       style="fill:#ffffff;fill-opacity:1;fill-rule:nonzero;stroke:none;stroke-width:0.1"
       id="path168"
       inkscape:connector-curvature="0" /><path
       d="m 214.886,354.88 -0.004,-1.163 -2.983,1.721 -0.173,-3.495 c 0.329,0.45 0.83,0.486 1.516,0.09 1.306,-0.755 1.88,-2.189 1.876,-3.852 l -0.007,-2.277 c -0.005,-1.789 -0.749,-2.525 -2.294,-1.632 -1.557,0.899 -2.283,2.483 -2.278,4.272 l 0.002,0.775 1.067,-0.615 -0.003,-0.864 c -0.002,-1.05 0.366,-1.902 1.182,-2.373 0.806,-0.466 1.189,-0.048 1.192,1.003 l 0.006,2.264 c 0.003,1.051 -0.376,1.909 -1.182,2.374 -0.62,0.358 -1.046,0.203 -1.146,-0.591 l -0.001,-0.263 -1.067,0.617 0.302,6.316 3.995,-2.307"
       style="fill:#ffffff;fill-opacity:1;fill-rule:nonzero;stroke:none;stroke-width:0.1"
       id="path170"
       inkscape:connector-curvature="0" /><path
       d="m 223.305,340.096 0.011,3.79 c 0.001,0.638 -0.215,1.176 -0.716,1.466 -0.511,0.295 -0.73,0.008 -0.732,-0.63 l -0.011,-3.79 c -0.002,-0.626 0.215,-1.189 0.726,-1.485 0.501,-0.289 0.72,0.024 0.722,0.649 m -0.702,6.019 c 1.001,-0.579 1.445,-1.587 1.442,-2.7 l -0.01,-3.665 c -0.004,-1.139 -0.452,-1.631 -1.453,-1.053 -0.991,0.572 -1.457,1.593 -1.454,2.731 l 0.011,3.665 c 0.003,1.113 0.473,1.594 1.464,1.022"
       style="fill:#ffffff;fill-opacity:1;fill-rule:nonzero;stroke:none;stroke-width:0.1"
       id="path172"
       inkscape:connector-curvature="0" /><path
       d="m 218.332,347.315 0.01,3.803 c 0.002,0.625 -0.214,1.189 -0.726,1.484 -0.523,0.301 -0.72,-0.023 -0.721,-0.648 l -0.011,-3.803 c -0.002,-0.638 0.193,-1.164 0.715,-1.466 0.512,-0.295 0.731,-0.008 0.733,0.63 m 0.729,-0.358 c -0.003,-1.126 -0.473,-1.607 -1.464,-1.035 -0.98,0.566 -1.446,1.587 -1.442,2.712 l 0.01,3.691 c 0.003,1.113 0.474,1.606 1.453,1.04 0.991,-0.572 1.457,-1.605 1.454,-2.719 l -0.011,-3.689"
       style="fill:#ffffff;fill-opacity:1;fill-rule:nonzero;stroke:none;stroke-width:0.1"
       id="path174"
       inkscape:connector-curvature="0" /><path
       d="m 221.744,350.92 0.674,-0.389 -4.027,-9.364 -0.686,0.395 4.039,9.358"
       style="fill:#ffffff;fill-opacity:1;fill-rule:nonzero;stroke:none;stroke-width:0.1"
       id="path176"
       inkscape:connector-curvature="0" /><path
       d="m 272.374,298.284 c 11.674,-6.74 11.749,-17.67 0.15,-24.41 -11.597,-6.74 -30.48,-6.74 -42.154,0 -11.674,6.74 -11.722,17.67 -0.124,24.41 11.598,6.74 30.454,6.74 42.128,0"
       style="fill:#b5cded;fill-opacity:1;fill-rule:nonzero;stroke:none;stroke-width:0.1"
       id="path178"
       inkscape:connector-curvature="0" /><path
       d="m 272.648,305.504 -0.011,-4.291 -7.42,-4.312 0.012,4.292 7.419,4.311"
       style="fill:#cc106b;fill-opacity:1;fill-rule:nonzero;stroke:none;stroke-width:0.1"
       id="path180"
       inkscape:connector-curvature="0" /><path
       d="m 242.807,298.167 0.151,0.062 c 0.415,0.158 0.841,0.3 1.272,0.436 0.299,0.094 0.605,0.177 0.911,0.26 0.233,0.063 0.463,0.131 0.699,0.188 0.322,0.078 0.65,0.143 0.977,0.209 0.24,0.049 0.476,0.103 0.718,0.146 0.099,0.017 0.199,0.031 0.298,0.047 0.407,0.067 0.817,0.125 1.23,0.174 0.119,0.015 0.238,0.03 0.357,0.043 0.478,0.051 0.958,0.092 1.44,0.12 l 0.267,0.014 c 0.323,0.016 0.648,0.021 0.973,0.027 0.324,0.005 0.647,0.008 0.971,0.004 0.271,-0.003 0.541,-0.012 0.812,-0.022 0.301,-0.012 0.599,-0.028 0.898,-0.048 0.275,-0.019 0.547,-0.042 0.82,-0.069 0.295,-0.029 0.59,-0.061 0.884,-0.099 0.266,-0.034 0.531,-0.071 0.793,-0.112 0.316,-0.049 0.628,-0.104 0.94,-0.163 0.326,-0.062 0.653,-0.124 0.974,-0.197 l 0.231,-0.053 c 0.452,-0.107 0.896,-0.228 1.335,-0.358 0.126,-0.037 0.25,-0.077 0.374,-0.116 0.364,-0.115 0.723,-0.237 1.077,-0.368 0.103,-0.038 0.207,-0.073 0.309,-0.113 0.321,-0.124 0.629,-0.262 0.939,-0.399 0.152,-0.068 0.311,-0.129 0.46,-0.2 0.446,-0.212 0.882,-0.437 1.3,-0.679 l 0.012,5.005 c -0.418,0.242 -0.853,0.467 -1.3,0.679 -0.149,0.071 -0.305,0.132 -0.456,0.199 -0.266,0.118 -0.527,0.24 -0.801,0.348 l -0.143,0.053 c -0.101,0.039 -0.205,0.074 -0.307,0.112 -0.354,0.131 -0.713,0.253 -1.078,0.368 -0.124,0.039 -0.248,0.079 -0.373,0.116 l -0.251,0.078 c -0.357,0.101 -0.719,0.194 -1.084,0.281 l -0.232,0.052 c -0.178,0.04 -0.353,0.083 -0.533,0.12 -0.145,0.03 -0.295,0.049 -0.442,0.077 -0.311,0.059 -0.623,0.114 -0.939,0.163 -0.126,0.02 -0.249,0.048 -0.376,0.066 -0.138,0.019 -0.278,0.029 -0.416,0.046 -0.295,0.038 -0.589,0.07 -0.886,0.099 -0.14,0.014 -0.28,0.036 -0.422,0.048 -0.131,0.01 -0.264,0.011 -0.396,0.021 -0.299,0.02 -0.599,0.036 -0.898,0.047 -0.151,0.007 -0.301,0.021 -0.452,0.025 -0.12,0.003 -0.24,-0.004 -0.36,-0.002 -0.325,0.004 -0.648,0.002 -0.973,-0.005 -0.16,-0.002 -0.321,0.004 -0.482,-10e-4 -0.163,-0.006 -0.326,-0.017 -0.489,-0.025 l -0.268,-0.014 c -0.404,-0.024 -0.808,-0.053 -1.209,-0.093 l -0.23,-0.027 c -0.12,-0.013 -0.239,-0.029 -0.359,-0.043 -0.412,-0.049 -0.821,-0.107 -1.227,-0.173 -0.1,-0.017 -0.201,-0.031 -0.301,-0.048 l -0.144,-0.024 c -0.193,-0.034 -0.379,-0.083 -0.57,-0.121 -0.329,-0.067 -0.658,-0.132 -0.98,-0.21 -0.236,-0.057 -0.464,-0.124 -0.696,-0.187 -0.307,-0.084 -0.614,-0.167 -0.914,-0.261 l -0.195,-0.056 c -0.365,-0.118 -0.724,-0.246 -1.077,-0.38 l -0.152,-0.062 c -0.386,-0.151 -0.764,-0.314 -1.133,-0.485 -0.11,-0.05 -0.219,-0.101 -0.326,-0.153 -0.41,-0.198 -0.812,-0.405 -1.196,-0.628 l -0.216,-0.128 -0.195,-0.122 c -0.108,-0.068 -0.216,-0.135 -0.321,-0.204 -0.097,-0.063 -0.189,-0.127 -0.283,-0.191 -0.101,-0.07 -0.202,-0.14 -0.3,-0.212 l -0.263,-0.196 c -0.094,-0.073 -0.187,-0.145 -0.278,-0.218 l -0.244,-0.203 -0.255,-0.224 -0.105,-0.091 -0.089,-0.088 c -0.139,-0.132 -0.273,-0.265 -0.401,-0.4 l -0.13,-0.135 c -0.163,-0.177 -0.317,-0.355 -0.46,-0.536 l -0.02,-0.023 -0.092,-0.126 c -0.086,-0.114 -0.171,-0.228 -0.25,-0.343 l -0.124,-0.191 c -0.068,-0.104 -0.133,-0.209 -0.194,-0.314 l -0.053,-0.085 -0.067,-0.129 -0.137,-0.267 -0.104,-0.223 c -0.04,-0.09 -0.078,-0.179 -0.114,-0.269 l -0.05,-0.12 -0.036,-0.109 -0.085,-0.257 -0.068,-0.233 -0.063,-0.259 -0.035,-0.14 -0.014,-0.095 -0.042,-0.265 -0.03,-0.233 -0.019,-0.268 -0.011,-0.156 -0.002,-0.869 -0.013,-4.292 c 0.001,0.104 0.008,0.208 0.014,0.312 l 0.019,0.268 0.03,0.233 0.041,0.265 0.049,0.235 0.063,0.259 0.069,0.234 0.085,0.256 0.087,0.229 0.112,0.269 0.105,0.224 0.137,0.266 0.12,0.215 c 0.061,0.105 0.127,0.209 0.194,0.314 l 0.124,0.189 c 0.079,0.116 0.164,0.229 0.25,0.343 l 0.112,0.15 c 0.143,0.18 0.297,0.359 0.459,0.536 l 0.13,0.135 c 0.129,0.135 0.262,0.268 0.402,0.399 l 0.193,0.181 0.255,0.222 0.245,0.204 c 0.091,0.073 0.184,0.145 0.278,0.217 l 0.263,0.197 c 0.098,0.071 0.198,0.142 0.3,0.211 0.093,0.064 0.186,0.129 0.283,0.192 0.105,0.069 0.213,0.136 0.322,0.203 0.135,0.085 0.269,0.169 0.41,0.251 0.384,0.224 0.787,0.43 1.196,0.628 0.107,0.053 0.216,0.103 0.324,0.153 0.371,0.171 0.748,0.334 1.136,0.485"
       style="fill:#cc106b;fill-opacity:1;fill-rule:nonzero;stroke:none;stroke-width:0.1"
       id="path182"
       inkscape:connector-curvature="0" /><path
       d="m 240.245,286.673 -0.013,-4.291 -7.419,-4.312 0.012,4.292 7.42,4.311"
       style="fill:#cc106b;fill-opacity:1;fill-rule:nonzero;stroke:none;stroke-width:0.1"
       id="path184"
       inkscape:connector-curvature="0" /><path
       d="m 232.825,282.362 -0.012,-4.292 c -5.571,3.217 -8.353,7.438 -8.341,11.652 l 0.012,4.291 c -0.011,-4.214 2.77,-8.435 8.341,-11.651"
       style="fill:#cc106b;fill-opacity:1;fill-rule:nonzero;stroke:none;stroke-width:0.1"
       id="path186"
       inkscape:connector-curvature="0" /><path
       d="m 272.648,305.504 -7.419,-4.311 c -6.944,4.009 -18.167,4.009 -25.066,-10e-4 -6.899,-4.008 -6.862,-10.509 0.082,-14.519 l -7.42,-4.311 c -11.072,6.392 -11.126,16.752 -0.13,23.142 10.996,6.391 28.882,6.392 39.953,0"
       style="fill:#f03963;fill-opacity:1;fill-rule:nonzero;stroke:none;stroke-width:0.1"
       id="path188"
       inkscape:connector-curvature="0" /><path
       d="m 265.229,299.879 -0.012,-2.978 c 3.492,-2.016 5.236,-4.663 5.228,-7.307 l 0.013,4.291 c 0.008,2.644 -1.737,3.978 -5.229,5.994"
       style="fill:#4772c1;fill-opacity:1;fill-rule:nonzero;stroke:none;stroke-width:0.1"
       id="path190"
       inkscape:connector-curvature="0" /><path
       d="m 272.555,280.926 -0.012,-2.978 -7.469,4.312 0.013,2.978 7.468,-4.312"
       style="fill:#4772c1;fill-opacity:1;fill-rule:nonzero;stroke:none;stroke-width:0.1"
       id="path192"
       inkscape:connector-curvature="0" /><path
       d="m 280.965,293.358 c -0.008,-0.142 -0.017,-0.285 -0.031,-0.427 -0.012,-0.123 -0.03,-0.247 -0.046,-0.37 -0.021,-0.142 -0.041,-0.283 -0.068,-0.424 -0.022,-0.125 -0.049,-0.249 -0.077,-0.373 -0.031,-0.138 -0.064,-0.276 -0.1,-0.413 -0.035,-0.124 -0.072,-0.249 -0.11,-0.373 -0.042,-0.136 -0.087,-0.273 -0.136,-0.409 -0.043,-0.122 -0.089,-0.243 -0.137,-0.365 -0.057,-0.143 -0.117,-0.286 -0.181,-0.428 -0.053,-0.119 -0.108,-0.238 -0.166,-0.357 -0.069,-0.142 -0.143,-0.283 -0.219,-0.424 -0.062,-0.114 -0.125,-0.228 -0.191,-0.342 -0.098,-0.168 -0.202,-0.335 -0.31,-0.502 -0.065,-0.1 -0.128,-0.202 -0.196,-0.302 -0.126,-0.183 -0.262,-0.366 -0.4,-0.547 l -0.177,-0.237 c -0.229,-0.289 -0.475,-0.573 -0.733,-0.855 l -0.208,-0.216 c -0.205,-0.214 -0.417,-0.427 -0.64,-0.637 -0.101,-0.095 -0.203,-0.191 -0.308,-0.286 -0.133,-0.12 -0.269,-0.238 -0.408,-0.356 -0.128,-0.109 -0.257,-0.217 -0.389,-0.324 -0.144,-0.117 -0.293,-0.232 -0.443,-0.347 -0.138,-0.105 -0.276,-0.211 -0.42,-0.315 -0.155,-0.113 -0.316,-0.224 -0.477,-0.335 -0.149,-0.103 -0.297,-0.205 -0.451,-0.305 -0.168,-0.11 -0.339,-0.218 -0.513,-0.325 -0.216,-0.135 -0.429,-0.269 -0.655,-0.4 l -0.22,-0.124 -0.012,-4.292 0.221,0.124 c 0.116,0.068 0.23,0.136 0.344,0.204 0.106,0.064 0.205,0.131 0.308,0.196 0.174,0.108 0.348,0.216 0.516,0.326 0.152,0.1 0.3,0.202 0.448,0.304 0.162,0.111 0.323,0.223 0.479,0.336 0.144,0.104 0.282,0.209 0.419,0.315 0.151,0.115 0.299,0.23 0.444,0.347 0.132,0.107 0.261,0.215 0.389,0.323 0.138,0.119 0.275,0.237 0.408,0.357 l 0.168,0.146 0.14,0.14 c 0.223,0.21 0.436,0.422 0.64,0.637 l 0.208,0.215 c 0.259,0.282 0.504,0.567 0.732,0.855 l 0.031,0.037 0.147,0.201 c 0.138,0.181 0.273,0.363 0.399,0.547 0.069,0.1 0.132,0.202 0.198,0.303 0.107,0.166 0.212,0.332 0.309,0.5 l 0.085,0.138 0.106,0.205 c 0.076,0.141 0.149,0.281 0.218,0.423 0.058,0.119 0.114,0.239 0.167,0.358 0.064,0.142 0.123,0.285 0.18,0.428 l 0.081,0.191 0.058,0.174 c 0.048,0.136 0.093,0.272 0.135,0.409 0.039,0.124 0.076,0.248 0.109,0.373 0.037,0.137 0.069,0.274 0.1,0.412 l 0.055,0.223 0.024,0.151 c 0.025,0.14 0.046,0.281 0.066,0.423 0.018,0.124 0.034,0.247 0.047,0.371 0.014,0.142 0.022,0.284 0.03,0.426 l 0.018,0.25 0.004,0.248 0.012,4.291 c -10e-4,-0.166 -0.012,-0.331 -0.021,-0.497"
       style="fill:#4772c1;fill-opacity:1;fill-rule:nonzero;stroke:none;stroke-width:0.1"
       id="path194"
       inkscape:connector-curvature="0" /><path
       d="m 272.648,304.191 c 11.069,-6.39 11.123,-16.751 0.127,-23.141 l -0.22,-0.124 -7.468,4.312 0.221,0.124 c 6.898,4.009 6.862,10.51 -0.079,14.517 l 7.419,4.312"
       style="fill:#73abe1;fill-opacity:1;fill-rule:nonzero;stroke:none;stroke-width:0.1"
       id="path196"
       inkscape:connector-curvature="0" /><path
       d="m 268.359,275.991 c 0.31,0.118 0.615,0.241 0.916,0.368 0.182,0.076 0.363,0.151 0.541,0.229 0.321,0.141 0.635,0.288 0.947,0.438 0.149,0.072 0.3,0.141 0.447,0.214 0.453,0.227 0.899,0.462 1.333,0.708 l 0.012,0.957 c -0.433,-0.246 -0.879,-0.481 -1.332,-0.708 -0.148,-0.073 -0.3,-0.142 -0.45,-0.214 -0.311,-0.15 -0.625,-0.297 -0.945,-0.438 -0.178,-0.078 -0.359,-0.153 -0.54,-0.229 -0.303,-0.126 -0.607,-0.25 -0.916,-0.368 -0.189,-0.073 -0.379,-0.144 -0.57,-0.214 -0.317,-0.115 -0.637,-0.225 -0.959,-0.332 -0.202,-0.068 -0.404,-0.136 -0.609,-0.201 -0.155,-0.048 -0.31,-0.094 -0.466,-0.141 -0.284,-0.085 -0.57,-0.167 -0.858,-0.246 -0.16,-0.044 -0.32,-0.088 -0.481,-0.13 -0.304,-0.08 -0.611,-0.154 -0.918,-0.227 -0.143,-0.034 -0.283,-0.069 -0.426,-0.102 -0.449,-0.101 -0.912,-0.197 -1.368,-0.284 v -0.957 c 0.456,0.087 0.908,0.183 1.356,0.285 0.143,0.032 0.282,0.067 0.424,0.101 0.309,0.072 0.615,0.147 0.92,0.227 0.161,0.042 0.321,0.086 0.481,0.13 0.288,0.079 0.574,0.161 0.857,0.246 0.156,0.046 0.312,0.093 0.468,0.142 l 0.24,0.072 c 0.125,0.04 0.244,0.087 0.368,0.128 0.322,0.107 0.642,0.217 0.958,0.332 0.191,0.07 0.382,0.141 0.57,0.214"
       style="fill:#df9918;fill-opacity:1;fill-rule:nonzero;stroke:none;stroke-width:0.1"
       id="path198"
       inkscape:connector-curvature="0" /><path
       d="m 272.555,278.905 c -3.162,-1.799 -6.874,-3.075 -10.826,-3.834 l -3.454,5.769 c 2.484,0.466 4.822,1.26 6.812,2.377 l 7.468,-4.312"
       style="fill:#fab727;fill-opacity:1;fill-rule:nonzero;stroke:none;stroke-width:0.1"
       id="path200"
       inkscape:connector-curvature="0" /><path
       d="m 260.511,275.693 c -0.283,-0.046 -0.566,-0.094 -0.851,-0.135 -0.331,-0.048 -0.665,-0.087 -0.999,-0.128 -0.284,-0.035 -0.567,-0.072 -0.853,-0.102 -0.529,-0.055 -1.058,-0.101 -1.59,-0.139 l -0.143,-0.011 c -0.589,-0.04 -1.179,-0.066 -1.77,-0.084 -0.151,-0.005 -0.301,-0.006 -0.451,-0.009 -0.436,-0.009 -0.873,-0.013 -1.309,-0.011 -0.181,0.002 -0.361,0.003 -0.542,0.006 -0.482,0.008 -0.964,0.023 -1.445,0.045 -0.092,0.004 -0.184,0.006 -0.276,0.011 -0.568,0.029 -1.135,0.07 -1.699,0.119 -0.149,0.013 -0.297,0.029 -0.446,0.043 -0.438,0.043 -0.874,0.091 -1.308,0.145 -0.157,0.02 -0.315,0.039 -0.472,0.06 -0.563,0.076 -1.123,0.16 -1.679,0.256 l -0.011,0.002 c -0.552,0.095 -1.098,0.205 -1.641,0.321 -0.193,0.041 -0.385,0.086 -0.577,0.13 -0.372,0.084 -0.742,0.173 -1.109,0.267 -0.201,0.052 -0.402,0.105 -0.601,0.159 -0.317,0.087 -0.631,0.18 -0.944,0.275 -0.287,0.086 -0.574,0.173 -0.857,0.266 -0.289,0.094 -0.575,0.194 -0.859,0.294 -0.279,0.099 -0.557,0.198 -0.831,0.303 -0.417,0.16 -0.831,0.323 -1.236,0.496 l -0.122,0.05 c -0.474,0.206 -0.937,0.424 -1.393,0.649 -0.11,0.054 -0.22,0.109 -0.329,0.165 -0.457,0.232 -0.907,0.47 -1.343,0.721 l -0.012,-1.787 c 0.436,-0.252 0.886,-0.489 1.343,-0.721 0.109,-0.056 0.219,-0.111 0.329,-0.165 0.456,-0.226 0.919,-0.443 1.393,-0.649 l 0.121,-0.05 c 0.299,-0.128 0.601,-0.255 0.907,-0.375 0.108,-0.043 0.22,-0.079 0.329,-0.12 0.275,-0.106 0.554,-0.205 0.834,-0.304 0.284,-0.101 0.567,-0.2 0.855,-0.294 0.284,-0.093 0.572,-0.181 0.861,-0.267 0.175,-0.053 0.346,-0.112 0.523,-0.163 0.137,-0.039 0.279,-0.072 0.418,-0.11 0.2,-0.055 0.401,-0.108 0.603,-0.16 0.366,-0.094 0.735,-0.183 1.107,-0.267 0.192,-0.044 0.384,-0.09 0.578,-0.131 l 0.252,-0.057 c 0.46,-0.094 0.922,-0.182 1.388,-0.263 l 0.017,-0.003 c 0.459,-0.08 0.92,-0.153 1.384,-0.218 0.096,-0.014 0.194,-0.024 0.29,-0.037 0.157,-0.021 0.315,-0.04 0.472,-0.06 0.434,-0.054 0.87,-0.102 1.308,-0.144 0.148,-0.015 0.296,-0.031 0.446,-0.044 l 0.229,-0.022 c 0.489,-0.04 0.978,-0.072 1.469,-0.097 0.093,-0.005 0.187,-0.007 0.28,-0.012 0.343,-0.015 0.686,-0.031 1.031,-0.04 0.137,-0.004 0.274,-0.002 0.41,-0.004 0.182,-0.003 0.363,-0.004 0.543,-0.006 0.437,-0.002 0.872,0.002 1.309,0.011 0.15,0.003 0.301,0.004 0.451,0.009 l 0.182,0.003 c 0.53,0.018 1.059,0.045 1.588,0.081 l 0.143,0.011 c 0.468,0.033 0.936,0.07 1.4,0.117 l 0.189,0.022 c 0.286,0.03 0.57,0.067 0.854,0.102 0.334,0.041 0.668,0.08 0.999,0.128 0.286,0.041 0.568,0.089 0.851,0.135 0.244,0.04 0.49,0.073 0.732,0.117 0.163,0.03 0.325,0.06 0.486,0.091 l 0.012,1.787 c -0.403,-0.077 -0.811,-0.141 -1.218,-0.208"
       style="fill:#6d66b9;fill-opacity:1;fill-rule:nonzero;stroke:none;stroke-width:0.1"
       id="path202"
       inkscape:connector-curvature="0" /><path
       d="m 258.275,281.675 3.454,-5.769 c -9.809,-1.885 -21.066,-0.569 -28.904,3.956 l 7.42,4.312 c 4.89,-2.823 11.903,-3.654 18.03,-2.499"
       style="fill:#a386ca;fill-opacity:1;fill-rule:nonzero;stroke:none;stroke-width:0.1"
       id="path204"
       inkscape:connector-curvature="0" /><g
       transform="scale(0.1)"
       id="g206"><g
         id="g208"
         clip-path="url(#clipPath212)"><path
           d="m 2742.42,4468.47 -2.24,1.26 c -0.97,0.52 -1.94,1.03 -2.9,1.5 -0.96,0.47 -1.92,0.92 -2.87,1.35 -0.94,0.42 -1.89,0.82 -2.83,1.2 -0.95,0.38 -1.9,0.74 -2.85,1.08 l -0.55,0.17 -0.2,0.07 -2.08,0.68 c -0.98,0.29 -1.95,0.56 -2.91,0.8 -0.98,0.25 -1.95,0.46 -2.9,0.65 -1.05,0.2 -2.07,0.37 -3.1,0.5 l -2.07,0.22 -0.31,0.03 -0.75,0.08 c -1.13,0.08 -2.23,0.12 -3.32,0.11 -1.24,-0.01 -2.46,-0.06 -3.66,-0.18 -1.39,-0.12 -2.75,-0.32 -4.07,-0.59 l -0.1,-0.02 -0.12,-0.04 c -1.62,-0.33 -3.2,-0.76 -4.72,-1.29 -1.99,-0.71 -3.9,-1.59 -5.7,-2.65 l -46.84,-27.21 c 3.19,1.85 6.68,3.16 10.42,3.94 l 0.14,0.04 c 3.72,0.75 7.7,0.96 11.89,0.6 l 0.33,-0.03 c 4.16,-0.39 8.52,-1.32 13.04,-2.85 l 0.21,-0.07 c 4.6,-1.57 9.36,-3.75 14.24,-6.56 l 1307.99,-755.18 46.83,27.22 -1308,755.17"
           style="fill:url(#linearGradient220);fill-opacity:1;fill-rule:nonzero;stroke:none"
           id="path222"
           inkscape:connector-curvature="0" /></g></g><g
       transform="scale(0.1)"
       id="g224"><g
         id="g226"
         clip-path="url(#clipPath230)"><path
           d="m 4120.78,3594.55 c -0.04,1.14 -0.09,2.28 -0.16,3.42 -0.07,1.15 -0.16,2.29 -0.28,3.44 -0.11,1.15 -0.23,2.31 -0.38,3.46 -0.15,1.18 -0.31,2.37 -0.51,3.55 l -0.02,0.1 -0.01,0.08 c -0.17,1.13 -0.37,2.26 -0.58,3.4 -0.24,1.22 -0.48,2.45 -0.75,3.68 -0.27,1.23 -0.56,2.46 -0.86,3.7 -0.32,1.25 -0.64,2.5 -0.99,3.75 -0.26,0.97 -0.56,1.94 -0.85,2.91 l -0.07,0.22 -0.16,0.61 c -0.38,1.21 -0.78,2.43 -1.18,3.65 -0.41,1.19 -0.82,2.4 -1.26,3.6 -0.41,1.15 -0.84,2.3 -1.29,3.44 -0.44,1.15 -0.9,2.29 -1.38,3.44 l -1.12,2.62 -0.07,0.16 -0.26,0.59 c -0.5,1.15 -1.02,2.29 -1.56,3.42 -0.58,1.25 -1.17,2.48 -1.79,3.71 -0.71,1.42 -1.43,2.83 -2.18,4.23 -0.8,1.51 -1.66,2.99 -2.51,4.48 l -0.44,0.78 -0.53,0.94 c -1.67,2.83 -3.42,5.61 -5.23,8.34 -1.45,2.16 -2.94,4.29 -4.48,6.37 -1.02,1.39 -2.07,2.76 -3.13,4.12 -0.9,1.13 -1.81,2.26 -2.73,3.36 -0.89,1.08 -1.8,2.14 -2.73,3.19 -0.9,1.03 -1.82,2.05 -2.75,3.05 l -0.55,0.58 -0.2,0.21 -2.13,2.23 c -0.98,1 -1.97,1.98 -2.97,2.94 -1.03,0.98 -2.06,1.95 -3.11,2.89 -1.04,0.94 -2.08,1.85 -3.14,2.74 l -1.6,1.31 -0.36,0.29 -1.19,0.97 c -1.02,0.81 -2.06,1.6 -3.09,2.37 -1.03,0.75 -2.06,1.47 -3.08,2.18 -1,0.69 -2,1.35 -3.01,1.99 -0.98,0.63 -1.99,1.24 -2.99,1.83 l -0.7,0.41 -46.83,-27.22 c 4.83,-2.78 9.53,-6.07 14.08,-9.75 l 0.34,-0.28 c 4.49,-3.67 8.83,-7.72 12.96,-12.11 l 0.19,-0.21 c 8.33,-8.88 15.82,-19.08 22.13,-29.95 l 0.44,-0.79 c 3.06,-5.33 5.85,-10.82 8.29,-16.41 l 0.09,-0.2 c 2.49,-5.71 4.64,-11.51 6.39,-17.33 l 0.06,-0.23 c 1.76,-5.83 3.12,-11.67 4.04,-17.44 l 0.01,-0.07 c 0.93,-5.82 1.4,-11.56 1.38,-17.16 l -2.53,-893.71 c -0.01,-5.48 -0.52,-10.55 -1.43,-15.21 l -0.1,-0.43 c -0.93,-4.57 -2.26,-8.73 -3.98,-12.44 l -0.1,-0.24 c -1.47,-3.12 -3.34,-5.72 -5.3,-8.19 l -1.97,-2.44 c -2.33,-2.48 -4.85,-4.7 -7.71,-6.36 l 46.83,27.21 c 2.86,1.67 5.38,3.88 7.71,6.37 l 1.96,2.42 c 0.84,1.06 1.79,1.98 2.55,3.16 0.96,1.51 1.85,3.12 2.66,4.83 l 0.1,0.23 0.09,0.21 c 0.53,1.15 1.05,2.33 1.51,3.57 0.45,1.2 0.86,2.44 1.23,3.72 0.35,1.17 0.66,2.37 0.95,3.61 l 0.31,1.55 0.08,0.44 0.3,1.47 c 0.18,1.1 0.35,2.23 0.5,3.37 0.14,1.12 0.26,2.26 0.35,3.41 0.1,1.09 0.15,2.21 0.21,3.33 0.04,1.13 0.07,2.27 0.08,3.43 v 0.2 l 2.53,893.7 c 0.01,1.06 -0.01,2.13 -0.04,3.19"
           style="fill:url(#linearGradient236);fill-opacity:1;fill-rule:nonzero;stroke:none"
           id="path238"
           inkscape:connector-curvature="0" /></g></g><path
       d="m 400.36,368.608 c 3.903,-2.253 7.052,-7.709 7.039,-12.193 l -0.253,-89.371 c -0.012,-4.484 -3.183,-6.291 -7.086,-4.038 l -130.799,75.518 c -3.903,2.253 -7.053,7.709 -7.04,12.193 l 0.253,89.371 c 0.013,4.484 3.183,6.291 7.086,4.038 l 130.8,-75.518"
       style="fill:#333897;fill-opacity:1;fill-rule:nonzero;stroke:none;stroke-width:0.1"
       id="path240"
       inkscape:connector-curvature="0" /><path
       d="m 362.458,405.253 c 1.227,-0.708 2.216,-2.423 2.212,-3.833 l -0.079,-28.091 c -0.004,-1.41 -1.001,-1.977 -2.228,-1.269 l -41.113,23.737 c -1.227,0.708 -2.217,2.423 -2.213,3.832 l 0.079,28.092 c 0.005,1.409 1.001,1.977 2.228,1.269 l 41.114,-23.737"
       style="fill:#527bc7;fill-opacity:1;fill-rule:nonzero;stroke:none;stroke-width:0.1"
       id="path242"
       inkscape:connector-curvature="0" /><path
       d="m 284.626,417.719 -0.003,-1.276 c -0.003,-0.751 -0.817,-1.219 -1.467,-0.842 l -6.015,3.49 c -0.302,0.175 -0.488,0.498 -0.487,0.848 l 0.004,1.275 c 0.002,0.751 0.817,1.219 1.467,0.842 l 6.015,-3.49 c 0.301,-0.175 0.487,-0.498 0.486,-0.847"
       style="fill:#ffffff;fill-opacity:1;fill-rule:nonzero;stroke:none;stroke-width:0.1"
       id="path244"
       inkscape:connector-curvature="0" /><path
       d="m 303.654,400.395 -0.004,-1.278 c -0.002,-0.751 -0.815,-1.219 -1.464,-0.843 l -25.061,14.469 c -0.304,0.175 -0.489,0.498 -0.488,0.848 l 0.003,1.278 c 0.002,0.751 0.815,1.219 1.465,0.843 l 25.061,-14.469 c 0.303,-0.175 0.489,-0.498 0.488,-0.848"
       style="fill:#74d2ea;fill-opacity:1;fill-rule:nonzero;stroke:none;stroke-width:0.1"
       id="path246"
       inkscape:connector-curvature="0" /><path
       d="m 273.323,358.189 9.566,4.88 6.314,-10.198 7.594,-7.726 7.568,4.567 15.155,4.888 6.855,-9.793 7.024,-5.771 6.851,-10.073 8.819,18.532 10.376,-4.941 5.57,4.557 11.258,-2.969 17.029,1.514 -0.088,0.996 -16.855,-1.498 -11.583,3.054 -5.473,-4.478 -10.708,5.098 -8.499,-17.861 -5.951,8.751 -7.03,5.775 -7.199,10.286 -15.968,-5.151 -6.991,-4.219 -6.963,7.083 -6.739,10.886 -10.386,-5.298 0.454,-0.891"
       style="fill:#55c7d9;fill-opacity:1;fill-rule:nonzero;stroke:none;stroke-width:0.1"
       id="path248"
       inkscape:connector-curvature="0" /><path
       d="m 332.09,416.071 c -3.787,2.186 -7.373,1.629 -8.854,-1.817 -1.853,-4.309 0.254,-11.566 4.716,-16.586 l 1.035,2.41 c -3.022,3.527 -4.43,8.511 -3.147,11.49 1.045,2.43 3.571,2.822 6.241,1.28 0.65,-0.375 1.31,-0.866 1.958,-1.469 l 1.035,2.409 c -0.985,0.948 -1.992,1.71 -2.984,2.283"
       style="fill:#f4f4f4;fill-opacity:1;fill-rule:nonzero;stroke:none;stroke-width:0.1"
       id="path250"
       inkscape:connector-curvature="0" /><path
       d="m 335.074,413.788 -1.034,-2.408 c 0.163,-0.152 0.326,-0.311 0.487,-0.478 3.436,-3.54 5.115,-8.978 3.751,-12.151 -0.05,-0.113 -0.103,-0.223 -0.16,-0.33 l -0.063,-0.113 c -0.994,-1.749 -2.898,-2.177 -5.008,-1.33 -0.33,0.131 -0.665,0.295 -1.004,0.49 l -0.271,0.163 c -0.165,0.103 -0.291,0.188 -0.415,0.272 l -0.056,0.04 c -0.271,0.192 -0.54,0.399 -0.811,0.631 l -0.102,0.089 c -0.1,0.087 -0.2,0.177 -0.299,0.27 l -0.11,0.104 c -0.131,0.122 -0.261,0.25 -0.389,0.381 -0.208,0.215 -0.407,0.436 -0.603,0.66 l -1.035,-2.41 c 0.197,-0.221 0.397,-0.441 0.603,-0.652 0.184,-0.189 0.369,-0.37 0.555,-0.546 l 0.159,-0.149 c 0.14,-0.131 0.283,-0.259 0.426,-0.384 l 0.144,-0.125 c 0.384,-0.326 0.769,-0.627 1.153,-0.896 l 0.092,-0.062 c 0.176,-0.125 0.352,-0.238 0.525,-0.349 l 0.061,-0.037 c 0.119,-0.074 0.239,-0.146 0.358,-0.215 0.285,-0.164 0.567,-0.313 0.849,-0.447 0.212,-0.1 0.412,-0.186 0.612,-0.266 3.22,-1.277 6.104,-0.471 7.392,2.529 1.934,4.499 -0.447,12.218 -5.318,17.238 -0.164,0.166 -0.326,0.326 -0.489,0.481"
       style="fill:#f9b20d;fill-opacity:1;fill-rule:nonzero;stroke:none;stroke-width:0.1"
       id="path252"
       inkscape:connector-curvature="0" /><path
       d="m 349.883,400.506 -0.003,-0.736 c -10e-4,-0.435 -0.472,-0.705 -0.848,-0.487 l -3.476,2.017 c -0.175,0.101 -0.282,0.288 -0.282,0.489 l 0.002,0.738 c 0.002,0.434 0.473,0.704 0.849,0.486 l 3.477,-2.017 c 0.173,-0.101 0.281,-0.287 0.281,-0.49"
       style="fill:#ffffff;fill-opacity:1;fill-rule:nonzero;stroke:none;stroke-width:0.1"
       id="path254"
       inkscape:connector-curvature="0" /><path
       d="m 360.88,390.494 -0.002,-0.739 c -10e-4,-0.434 -0.471,-0.704 -0.847,-0.487 l -14.484,8.362 c -0.176,0.101 -0.283,0.288 -0.282,0.491 l 0.002,0.738 c 10e-4,0.434 0.47,0.705 0.846,0.488 l 14.485,-8.363 c 0.174,-0.101 0.283,-0.288 0.282,-0.49"
       style="fill:#ffffff;fill-opacity:1;fill-rule:nonzero;stroke:none;stroke-width:0.1"
       id="path256"
       inkscape:connector-curvature="0" /><path
       d="m 354.32,385.3 c -0.094,0 -0.19,0.024 -0.281,0.076 l -8.514,4.915 c -0.174,0.102 -0.282,0.289 -0.282,0.491 l 0.002,0.738 c 0.002,0.329 0.272,0.564 0.566,0.564 0.094,0 0.191,-0.024 0.282,-0.076 l 8.512,-4.915 c 0.175,-0.101 0.283,-0.288 0.283,-0.49 l -0.002,-0.739 c -0.002,-0.329 -0.272,-0.564 -0.566,-0.564"
       style="fill:#a4c7ec;fill-opacity:1;fill-rule:nonzero;stroke:none;stroke-width:0.1"
       id="path258"
       inkscape:connector-curvature="0" /><path
       d="m 358.623,388.121 -0.002,-0.739 c -10e-4,-0.434 -0.471,-0.704 -0.847,-0.487 l -12.238,7.066 c -0.175,0.101 -0.283,0.288 -0.282,0.49 l 0.002,0.739 c 0.001,0.434 0.471,0.704 0.847,0.487 l 12.239,-7.066 c 0.175,-0.101 0.282,-0.288 0.281,-0.49"
       style="fill:#73abe1;fill-opacity:1;fill-rule:nonzero;stroke:none;stroke-width:0.1"
       id="path260"
       inkscape:connector-curvature="0" /><path
       d="m 393.292,355.421 c -4.219,2.436 -7.662,0.475 -7.676,-4.374 -0.013,-4.848 3.407,-10.752 7.626,-13.188 4.22,-2.436 7.644,-0.484 7.658,4.364 0.014,4.848 -3.388,10.762 -7.608,13.198"
       style="fill:#ef2770;fill-opacity:1;fill-rule:nonzero;stroke:none;stroke-width:0.1"
       id="path262"
       inkscape:connector-curvature="0" /><path
       d="m 393.273,350.61 c -1.907,1.101 -3.463,0.214 -3.47,-1.978 -0.006,-2.192 1.541,-4.861 3.448,-5.962 1.907,-1.101 3.456,-0.219 3.462,1.973 0.006,2.192 -1.532,4.865 -3.44,5.967"
       style="fill:#2a2f71;fill-opacity:1;fill-rule:nonzero;stroke:none;stroke-width:0.1"
       id="path264"
       inkscape:connector-curvature="0" /><path
       d="m 285.153,401.204 v -1.315 c 0,-0.775 -0.839,-1.26 -1.51,-0.873 l -6.215,3.58 c -0.313,0.18 -0.505,0.513 -0.505,0.873 v 1.315 c 0,0.776 0.839,1.261 1.511,0.873 l 6.214,-3.58 c 0.313,-0.18 0.505,-0.513 0.505,-0.873"
       style="fill:#74d2ea;fill-opacity:1;fill-rule:nonzero;stroke:none;stroke-width:0.1"
       id="path266"
       inkscape:connector-curvature="0" /><path
       d="m 304.835,383.396 v -1.319 c 0,-0.774 -0.837,-1.259 -1.509,-0.874 l -25.895,14.845 c -0.313,0.179 -0.506,0.513 -0.506,0.873 l -0.001,1.319 c 0,0.774 0.837,1.259 1.509,0.874 l 25.895,-14.845 c 0.314,-0.179 0.507,-0.513 0.507,-0.873"
       style="fill:#74d2ea;fill-opacity:1;fill-rule:nonzero;stroke:none;stroke-width:0.1"
       id="path268"
       inkscape:connector-curvature="0" /><path
       d="m 293.153,374.091 c -0.167,0 -0.338,0.042 -0.5,0.135 l -15.218,8.724 c -0.314,0.179 -0.507,0.513 -0.507,0.874 v 1.318 c 0,0.588 0.482,1.01 1.008,1.01 0.167,0 0.338,-0.043 0.5,-0.135 l 15.219,-8.725 c 0.313,-0.18 0.506,-0.513 0.506,-0.874 V 375.1 c 10e-4,-0.588 -0.482,-1.009 -1.008,-1.009"
       style="fill:#4794d4;fill-opacity:1;fill-rule:nonzero;stroke:none;stroke-width:0.1"
       id="path270"
       inkscape:connector-curvature="0" /><path
       d="m 300.82,379.148 0.001,-1.317 c 0,-0.775 -0.837,-1.26 -1.508,-0.875 l -21.88,12.543 c -0.313,0.179 -0.506,0.513 -0.506,0.874 l -0.001,1.318 c 0,0.774 0.837,1.259 1.509,0.874 l 21.879,-12.543 c 0.313,-0.179 0.506,-0.513 0.506,-0.874"
       style="fill:#74d2ea;fill-opacity:1;fill-rule:nonzero;stroke:none;stroke-width:0.1"
       id="path272"
       inkscape:connector-curvature="0" /><path
       d="m 374.501,289.779 3.531,2.052 -0.068,-23.97 -3.53,-2.052 0.067,23.97"
       style="fill:#30ae41;fill-opacity:1;fill-rule:nonzero;stroke:none;stroke-width:0.1"
       id="path274"
       inkscape:connector-curvature="0" /><path
       d="m 381.71,290.419 v 0.029 l -0.002,0.029 -0.002,0.029 -0.003,0.03 -0.005,0.029 -0.005,0.031 -0.006,0.031 -0.001,0.007 -10e-4,0.002 -0.005,0.023 -0.009,0.031 -0.009,0.033 -0.011,0.032 -0.01,0.03 -0.012,0.031 -0.012,0.031 -0.013,0.031 -0.015,0.032 -0.016,0.032 v 0 l -10.991,21.882 -0.014,0.026 -0.029,0.053 -0.054,0.086 -0.036,0.05 -0.025,0.034 -0.025,0.03 -0.023,0.027 -0.013,0.014 -10e-4,0.002 -0.01,0.011 -0.026,0.026 -0.026,0.026 -0.028,0.026 -0.028,0.025 -0.027,0.022 -0.029,0.022 -0.026,0.019 -0.027,0.017 -0.026,0.016 -0.005,0.003 -0.021,0.012 -0.025,0.013 -0.025,0.012 -0.025,0.01 -0.026,0.01 -0.025,0.008 -0.025,0.007 -0.027,0.006 -0.027,0.004 -0.01,0.001 -10e-4,10e-4 -0.016,0.001 -0.03,10e-4 -0.031,-10e-4 -0.035,-0.005 -0.043,-0.012 -0.052,-0.023 -3.531,-2.052 0.207,0.039 h 10e-4 l 0.235,-0.083 c 0.089,-0.051 0.177,-0.124 0.259,-0.214 l 10e-4,-0.002 c 0.082,-0.09 0.157,-0.198 0.219,-0.321 l 10.991,-21.88 c 0.054,-0.107 0.09,-0.21 0.112,-0.307 v -10e-4 c 0.022,-0.097 0.029,-0.187 0.023,-0.268 v -10e-4 l -0.056,-0.208 -0.002,-0.004 -0.123,-0.133 3.53,2.052 0.108,0.104 0.015,0.029 0.003,0.004 0.006,0.01 0.016,0.039 0.012,0.032 0.007,0.033 0.007,0.03 0.004,0.031 0.003,0.028 0.001,0.005 v 0.001 l 10e-4,0.024 10e-4,0.028"
       style="fill:#6bc62f;fill-opacity:1;fill-rule:nonzero;stroke:none;stroke-width:0.1"
       id="path276"
       inkscape:connector-curvature="0" /><path
       d="m 366.572,311.308 c 0.178,-0.103 0.355,-0.291 0.479,-0.537 l 10.991,-21.88 c 0.325,-0.651 0.035,-1.176 -0.483,-0.877 l -3.058,1.765 -0.067,-23.97 -16.057,9.27 0.068,23.971 -2.956,1.706 c -0.524,0.303 -0.81,1.16 -0.476,1.431 l 11.079,9.139 c 0.125,0.1 0.303,0.085 0.48,-0.018"
       style="fill:#46bb3a;fill-opacity:1;fill-rule:nonzero;stroke:none;stroke-width:0.1"
       id="path278"
       inkscape:connector-curvature="0" /><path
       d="m 252.612,260.203 31.764,-32.424 30.85,8.022 -31.764,32.423 -30.85,-8.021"
       style="fill:#ffffff;fill-opacity:1;fill-rule:nonzero;stroke:none;stroke-width:0.1"
       id="path280"
       inkscape:connector-curvature="0" /><path
       d="m 286.717,258.216 -3.041,-1.15 c -2.288,1.793 -6.248,2.428 -8.934,1.413 l -0.161,-0.066 -2.523,2.076 0.163,0.065 c 4.364,1.65 10.815,0.601 14.496,-2.338"
       style="fill:#e7effa;fill-opacity:1;fill-rule:nonzero;stroke:none;stroke-width:0.1"
       id="path282"
       inkscape:connector-curvature="0" /><path
       d="m 287.103,257.893 c 2.951,-2.611 2.78,-5.741 -0.218,-7.566 l -2.602,2.14 c 1.374,1.13 1.343,2.822 -0.225,4.275 l 3.045,1.151"
       style="fill:#e7effa;fill-opacity:1;fill-rule:nonzero;stroke:none;stroke-width:0.1"
       id="path284"
       inkscape:connector-curvature="0" /><path
       d="m 286.477,250.096 c -0.309,-0.162 -0.643,-0.313 -1.002,-0.449 -4.302,-1.626 -10.628,-0.632 -14.334,2.21 l 3.044,1.151 c 2.309,-1.696 6.146,-2.278 8.768,-1.286 0.364,0.138 0.685,0.299 0.964,0.48 l 2.56,-2.106"
       style="fill:#67a5de;fill-opacity:1;fill-rule:nonzero;stroke:none;stroke-width:0.1"
       id="path286"
       inkscape:connector-curvature="0" /><path
       d="m 274.141,258.209 c -2.132,-1.112 -2.322,-3.182 -0.356,-4.882 l -3.041,-1.151 c -3.357,2.849 -2.94,6.363 0.861,8.119 l 2.536,-2.086"
       style="fill:#67a5de;fill-opacity:1;fill-rule:nonzero;stroke:none;stroke-width:0.1"
       id="path288"
       inkscape:connector-curvature="0" /><path
       d="m 283.564,99.827 c 0,0 -2.49,-1.7122 -0.155,-5.759 2.335,-4.0469 4.359,-1.5559 9.652,-5.6039 5.292,-4.0469 7.16,-4.825 9.961,-4.5141 2.802,0.3121 4.515,1.7121 4.982,3.2691 0.467,1.5559 -0.935,4.2028 -0.935,4.2028 l -23.505,8.4051"
       style="fill:#939fc2;fill-opacity:1;fill-rule:nonzero;stroke:none;stroke-width:0.1"
       id="path290"
       inkscape:connector-curvature="0" /><path
       d="m 305.98,99.6719 c 0,0 1.089,-5.293 1.712,-9.3399 0.156,-1.8679 -2.335,-4.4101 -5.915,-4.255 -3.58,0.1562 -5.604,1.2449 -6.849,2.8019 -1.245,1.557 -9.029,4.566 -10.429,5.8109 -1.401,1.2461 -1.713,4.9821 -1.09,5.9152 0.622,0.935 2.957,2.492 5.448,1.402 2.491,-1.09 4.514,-3.1129 9.496,-3.425 4.981,-0.3109 7.627,1.0899 7.627,1.0899"
       style="fill:#322441;fill-opacity:1;fill-rule:nonzero;stroke:none;stroke-width:0.1"
       id="path292"
       inkscape:connector-curvature="0" /><path
       d="m 308.263,113.318 c 0,0 -2.491,-1.713 -0.156,-5.759 2.335,-4.047 4.359,-1.557 9.652,-5.604 5.292,-4.048 7.16,-4.8261 9.962,-4.5152 2.801,0.3122 4.514,1.7133 4.981,3.2702 0.467,1.557 -0.934,4.202 -0.934,4.202 l -23.505,8.406"
       style="fill:#939fc2;fill-opacity:1;fill-rule:nonzero;stroke:none;stroke-width:0.1"
       id="path294"
       inkscape:connector-curvature="0" /><path
       d="m 330.679,113.162 c 0,0 1.089,-5.292 1.712,-9.339 0.155,-1.868 -2.335,-4.4109 -5.915,-4.255 -3.58,0.1558 -5.604,1.245 -6.85,2.802 -1.245,1.557 -9.028,4.566 -10.429,5.812 -1.401,1.245 -1.713,4.98 -1.09,5.915 0.623,0.933 2.958,2.49 5.449,1.4 2.49,-1.089 4.513,-3.113 9.495,-3.424 4.981,-0.311 7.628,1.089 7.628,1.089"
       style="fill:#322441;fill-opacity:1;fill-rule:nonzero;stroke:none;stroke-width:0.1"
       id="path296"
       inkscape:connector-curvature="0" /><path
       d="m 311.324,156.229 c 1.245,-9.962 6.227,-36.114 7.057,-45.246 0,0 2.076,-3.321 8.302,-2.491 l 2.956,1.232 c 1.19,0.496 1.904,1.719 1.745,2.999 -0.626,5.036 -2.034,17.717 -1.38,25.242 0.83,9.547 -1.66,15.358 -1.66,15.358 0.207,3.114 0.622,13.906 -5.605,16.812 0,0 -15.255,2.802 -11.415,-13.906"
       style="fill:#28387a;fill-opacity:1;fill-rule:nonzero;stroke:none;stroke-width:0.1"
       id="path298"
       inkscape:connector-curvature="0" /><path
       d="m 323.985,165.568 -1.661,-3.32 c 0,0 -25.528,-1.245 -32.377,-8.717 0,0 -4.566,-0.831 -3.321,-10.793 1.245,-9.962 6.227,-36.113 7.057,-45.2458 0,0 2.075,-3.3203 8.301,-2.4902 l 2.956,1.2312 c 1.191,0.4957 1.905,1.7188 1.746,2.9988 -0.626,5.037 -2.035,17.717 -1.38,25.242 0.83,9.547 -1.66,15.359 -1.66,15.359 0,0 11.207,-2.076 23.245,-7.057 12.038,-4.981 22.415,0.83 26.981,3.321 4.566,2.49 6.227,4.151 6.227,4.151 0,0 5.811,0 11.207,4.565 5.396,4.567 6.226,16.605 0.416,23.662 -5.812,7.056 -47.737,-2.907 -47.737,-2.907"
       style="fill:#2a3c8e;fill-opacity:1;fill-rule:nonzero;stroke:none;stroke-width:0.1"
       id="path300"
       inkscape:connector-curvature="0" /><path
       d="m 333.117,228.664 c 0,0 4.125,1.528 3.854,7.039 -1.252,5.426 -2.766,5.791 -2.766,5.791 0,0 5.772,5.333 12.732,3.652 0,0 4.299,-8.723 9.163,-12.459 0,0 -3.888,-10.25 -22.983,-4.023"
       style="fill:#cd6d49;fill-opacity:1;fill-rule:nonzero;stroke:none;stroke-width:0.1"
       id="path302"
       inkscape:connector-curvature="0" /><path
       d="m 342.146,225.551 c 0,0 15.254,12.763 18.368,13.075 3.735,0.311 8.405,-0.934 9.651,-6.227 1.245,-5.292 -1.557,-9.339 -4.359,-10.896 -2.802,-1.557 -27.397,-13.387 -31.755,-13.387 -4.359,0 -7.16,3.737 -4.359,8.405 2.802,4.67 12.454,9.03 12.454,9.03"
       style="fill:#df9918;fill-opacity:1;fill-rule:nonzero;stroke:none;stroke-width:0.1"
       id="path304"
       inkscape:connector-curvature="0" /><path
       d="m 346.815,234.06 c 0,0 -16.188,-5.396 -20.754,-12.869 -4.567,-7.471 -3.737,-15.773 -0.415,-27.396 3.32,-11.622 -3.322,-22 -1.661,-28.227 1.661,-6.226 13.283,-12.037 30.302,-9.131 17.019,2.905 18.265,9.546 19.51,13.283 1.245,3.735 -3.321,21.585 0.83,36.113 4.151,14.528 -4.151,24.491 -7.472,26.981 -3.321,2.491 -9.963,5.812 -20.34,1.246"
       style="fill:#fab727;fill-opacity:1;fill-rule:nonzero;stroke:none;stroke-width:0.1"
       id="path306"
       inkscape:connector-curvature="0" /><path
       d="m 367.155,232.814 c -3.321,2.492 -9.963,5.812 -20.34,1.246 0,0 -16.188,-5.396 -20.754,-12.869 -1.107,-1.81 -1.891,-3.67 -2.405,-5.614 6.555,8.521 15.859,12.262 21.914,-2.272 5.652,-13.564 -8.727,-53.432 -21.291,-40.898 -0.528,-2.614 -0.804,-4.924 -0.294,-6.839 1.661,-6.226 13.283,-12.037 30.302,-9.131 17.019,2.905 18.265,9.546 19.51,13.283 1.245,3.735 -3.321,21.585 0.83,36.113 4.151,14.528 -4.151,24.491 -7.472,26.981"
       style="fill:#df9918;fill-opacity:1;fill-rule:nonzero;stroke:none;stroke-width:0.1"
       id="path308"
       inkscape:connector-curvature="0" /><path
       d="m 331.353,227.003 c 0,0 4.359,-2.802 15.254,-1.245 10.897,1.556 11.52,9.34 10.585,9.963 -0.933,0.622 -2.801,3.112 -2.801,3.112 0,0 -11.519,-5.292 -15.567,-6.849 -4.047,-1.556 -6.225,-2.49 -6.225,-2.49 l -1.246,-2.491"
       style="fill:#ffffff;fill-opacity:1;fill-rule:nonzero;stroke:none;stroke-width:0.1"
       id="path310"
       inkscape:connector-curvature="0" /><path
       d="m 324.192,260.937 c 0,0 -0.933,-11.207 4.982,-18.679 5.915,-7.472 11.83,-3.113 15.566,-1.245 3.736,1.868 5.292,4.981 6.537,14.009 1.245,9.029 1.245,17.746 -5.292,20.548 -6.538,2.802 -13.698,3.424 -17.746,-3.425 -4.047,-6.849 -4.047,-11.208 -4.047,-11.208"
       style="fill:#f89b75;fill-opacity:1;fill-rule:nonzero;stroke:none;stroke-width:0.1"
       id="path312"
       inkscape:connector-curvature="0" /><path
       d="m 328.551,274.324 c 0,0 -5.292,-4.047 -4.982,-9.962 0.312,-5.915 -1.555,-6.849 -0.933,-9.962 0.623,-3.113 5.603,-4.047 5.915,-8.406 0.311,-4.358 6.849,-5.915 10.273,-7.161 3.425,-1.245 9.03,2.803 10.586,4.981 1.556,2.18 1.245,7.784 3.112,12.765 1.869,4.981 0.935,11.208 -0.622,15.566 -1.556,4.359 -4.67,5.292 -4.67,5.292 0,0 -1.556,3.425 -5.292,4.048 -3.736,0.622 -15.255,0 -13.387,-7.161"
       style="fill:#442860;fill-opacity:1;fill-rule:nonzero;stroke:none;stroke-width:0.1"
       id="path314"
       inkscape:connector-curvature="0" /><path
       d="m 378.443,90.227 c -0.565,-6.2821 -6.476,-10.5469 -11.81,-12.8461 -5.809,-2.5028 -12.195,-3.5129 -18.497,-3.4317 -6.432,0.0828 -12.999,1.3137 -18.799,4.1668 -5.062,2.4899 -10.433,7.0078 -10.416,13.152 -0.012,-4.4739 0.302,-8.1711 3.525,-11.6641 4.151,-4.4969 10.4,-6.918 16.279,-8.132 11.467,-2.368 27.084,-1.2239 35.795,7.6051 3.505,3.5519 3.984,7.2968 3.998,12.021 -0.013,-0.291 -0.038,-0.582 -0.075,-0.871"
       style="fill:#b5cded;fill-opacity:1;fill-rule:nonzero;stroke:none;stroke-width:0.1"
       id="path316"
       inkscape:connector-curvature="0" /><path
       d="m 369.715,103.396 c 11.674,-6.7409 11.749,-17.6698 0.15,-24.4108 -11.597,-6.7403 -30.48,-6.7403 -42.154,0 -11.675,6.741 -11.723,17.6699 -0.124,24.4108 11.598,6.74 30.453,6.74 42.128,0"
       style="fill:#e7effa;fill-opacity:1;fill-rule:nonzero;stroke:none;stroke-width:0.1"
       id="path318"
       inkscape:connector-curvature="0" /><path
       d="m 354.028,117.02 -0.074,-26.0481 -4.557,-2.6477 0.075,26.0468 4.556,2.649"
       style="fill:#cddaf2;fill-opacity:1;fill-rule:nonzero;stroke:none;stroke-width:0.1"
       id="path320"
       inkscape:connector-curvature="0" /><path
       d="m 349.472,114.371 -0.075,-26.0468 -4.586,2.6477 0.074,26.0481 4.587,-2.649"
       style="fill:#8baade;fill-opacity:1;fill-rule:nonzero;stroke:none;stroke-width:0.1"
       id="path322"
       inkscape:connector-curvature="0" /><path
       d="m 354.028,117.02 -4.556,-2.649 -4.587,2.649 4.556,2.648 4.587,-2.648"
       style="fill:#5fa6df;fill-opacity:1;fill-rule:nonzero;stroke:none;stroke-width:0.1"
       id="path324"
       inkscape:connector-curvature="0" /><path
       d="m 407.152,205.955 c -0.131,3.611 -3.714,6.065 -7.125,4.868 -14.889,-5.222 -49.018,-17.592 -51.211,-21.977 -2.089,-4.179 -8.84,-27.523 -12.165,-39.217 -0.961,-3.379 -4.854,-4.927 -7.88,-3.142 l -20.627,12.164 c -3.924,2.315 -8.764,-1.007 -8.016,-5.501 l 3.312,-19.871 c 0.264,-1.586 1.226,-2.968 2.62,-3.769 l 22.07,-12.679 c 12.334,-7.086 27.398,-7.521 40.122,-1.159 l 17.014,8.507 c 14.88,7.44 24.041,22.887 23.433,39.512 l -1.547,42.264"
       style="fill:#4772c1;fill-opacity:1;fill-rule:nonzero;stroke:none;stroke-width:0.1"
       id="path326"
       inkscape:connector-curvature="0" /><path
       d="m 348.816,188.846 c -2.089,-4.179 -8.84,-27.523 -12.165,-39.217 -0.961,-3.379 -4.854,-4.927 -7.88,-3.142 l -20.627,12.164 c -3.924,2.315 -8.764,-1.007 -8.016,-5.501 l 3.312,-19.871 c 0.078,-0.464 0.23,-0.901 0.42,-1.32 0.263,-0.414 0.528,-0.827 0.797,-1.238 0.398,-0.472 0.855,-0.897 1.403,-1.211 l 22.07,-12.679 c 4.676,-2.686 9.744,-4.412 14.929,-5.179 17.902,13.893 15.645,71.877 9.153,76.747 -0.962,0.721 -1.809,1.17 -2.557,1.413 -0.405,-0.353 -0.695,-0.678 -0.839,-0.966"
       style="fill:#5faee4;fill-opacity:1;fill-rule:nonzero;stroke:none;stroke-width:0.1"
       id="path328"
       inkscape:connector-curvature="0" /><path
       d="m 308.938,206.456 c 0,0 15.254,12.764 18.368,13.075 3.736,0.312 8.406,-0.933 9.651,-6.226 1.245,-5.292 -1.557,-9.34 -4.358,-10.897 -2.803,-1.556 -27.397,-13.387 -31.756,-13.387 -4.359,0 -7.16,3.737 -4.359,8.407 2.802,4.67 12.454,9.028 12.454,9.028"
       style="fill:#fab727;fill-opacity:1;fill-rule:nonzero;stroke:none;stroke-width:0.1"
       id="path330"
       inkscape:connector-curvature="0" /><path
       d="m 287.456,226.691 c 0,0 -0.778,1.557 -0.934,2.647 -0.156,1.09 0.467,2.491 -0.156,4.981 -0.622,2.491 -1.712,4.67 -2.178,6.382 -1.246,1.557 -2.335,-1.245 -1.402,-3.58 0.935,-2.335 0.623,-3.735 -0.311,-3.892 -0.934,-0.155 -4.826,2.18 -5.915,3.425 -1.089,1.245 -7.316,7.317 -7.939,6.538 -0.623,-0.778 -0.623,-1.556 1.557,-3.891 2.179,-2.335 2.958,-3.425 3.113,-4.048 0.155,-0.622 0,-1.245 0.778,-3.113 0.779,-1.868 0.156,-3.114 1.557,-4.826 1.401,-1.711 4.047,-2.023 5.293,-3.113 1.245,-1.09 1.245,-1.09 1.245,-1.09 l 5.292,3.58"
       style="fill:#f89b75;fill-opacity:1;fill-rule:nonzero;stroke:none;stroke-width:0.1"
       id="path332"
       inkscape:connector-curvature="0" /><path
       d="m 300.843,189.021 c 0,0 -6.537,-1.245 -10.066,6.02 -3.528,7.264 -9.548,26.773 -10.378,28.642 0,0 2.076,4.565 7.265,4.358 0,0 5.812,-11.415 9.132,-16.604 3.321,-5.189 15.151,-20.339 4.047,-22.416"
       style="fill:#fab727;fill-opacity:1;fill-rule:nonzero;stroke:none;stroke-width:0.1"
       id="path334"
       inkscape:connector-curvature="0" /><path
       d="m 204.633,312.769 c 0,0 2.03,1.291 3.228,0.922 1.2,-0.369 5.35,-1.015 6.641,-1.107 1.291,-0.092 3.874,2.214 4.335,2.583 0.462,0.369 0.738,1.199 1.292,1.752 0.553,0.554 0.83,0.461 0.83,1.476 0,1.015 1.015,1.937 1.476,2.398 0.461,0.461 2.305,1.568 2.121,2.398 -0.184,0.83 -1.107,0.369 -1.66,0.184 -0.554,-0.184 -2.675,-2.121 -3.597,-2.674 -0.923,-0.554 -3.136,-1.384 -4.243,-1.384 -1.107,0 -2.121,0.277 -2.121,0.277 0,0 -0.277,0 0.83,0.369 1.107,0.369 1.752,0.092 2.674,0.277 0.923,0.184 1.384,0.738 1.291,1.198 -0.092,0.462 -1.291,0.462 -1.752,0.462 -0.461,0 -3.228,-0.092 -4.335,0.092 -1.107,0.185 -2.951,-1.66 -3.32,-2.029 -0.369,-0.369 -2.306,-0.922 -3.321,-1.015 -1.014,-0.092 -0.369,-6.179 -0.369,-6.179"
       style="fill:#f78d65;fill-opacity:1;fill-rule:nonzero;stroke:none;stroke-width:0.1"
       id="path336"
       inkscape:connector-curvature="0" /><path
       d="m 164.939,313.757 c 0,0 1.93,-6.369 10.002,-6.124 8.072,0.244 28.147,3.964 30.187,4.096 0,0 3.082,3.957 0.491,8.457 0,0 -12.808,-0.148 -18.946,0.386 -6.137,0.534 -25.048,3.985 -21.734,-6.815"
       style="fill:#e4eaf5;fill-opacity:1;fill-rule:nonzero;stroke:none;stroke-width:0.1"
       id="path338"
       inkscape:connector-curvature="0" /><path
       d="m 122.213,301.004 c 0,0 -3.374,19.603 -5.546,21.854 -2.647,2.655 -7.014,4.727 -11.388,1.497 -4.373,-3.23 -4.855,-8.129 -3.726,-11.128 1.13,-3 12.229,-27.933 15.552,-30.753 3.324,-2.82 7.877,-1.784 8.762,3.589 0.885,5.374 -3.654,14.941 -3.654,14.941"
       style="fill:#e4eaf5;fill-opacity:1;fill-rule:nonzero;stroke:none;stroke-width:0.1"
       id="path340"
       inkscape:connector-curvature="0" /><path
       d="m 156.233,290.565 c 0,0 2.646,-0.155 3.58,-0.155 0.935,0 8.095,0.622 9.34,0.622 1.245,0 1.245,-1.401 1.245,-1.401 0,0 1.246,-2.024 1.246,-2.802 0,-0.778 0,-1.868 0.311,-2.646 0.312,-0.778 -0.156,-1.401 -0.467,-2.024 -0.311,-0.622 -1.09,-0.933 -1.868,-1.401 -0.778,-0.466 -1.712,-0.466 -2.335,-0.155 -0.622,0.311 -0.622,0.467 0.156,0.934 0.778,0.467 1.401,1.089 1.401,1.089 0,0 -0.934,-0.934 -2.335,-1.089 -1.401,-0.156 -3.58,-0.156 -4.825,0.467 -1.246,0.622 -3.425,1.712 -3.425,1.712 l -2.491,0.311 0.467,6.538"
       style="fill:#f78d65;fill-opacity:1;fill-rule:nonzero;stroke:none;stroke-width:0.1"
       id="path342"
       inkscape:connector-curvature="0" /><path
       d="m 116.58,285.115 c 0,0 1.93,-6.369 10.002,-6.124 8.072,0.244 28.147,3.964 30.188,4.095 0,0 3.081,3.957 0.49,8.458 0,0 -12.808,-0.148 -18.946,0.386 -6.137,0.534 -25.047,3.985 -21.734,-6.815"
       style="fill:#e4eaf5;fill-opacity:1;fill-rule:nonzero;stroke:none;stroke-width:0.1"
       id="path344"
       inkscape:connector-curvature="0" /></g></svg>